<?xml version="1.0" encoding="UTF-8" standalone="no"?>
<!-- Created with Inkscape (http://www.inkscape.org/) -->

<svg
   xmlns:dc="http://purl.org/dc/elements/1.1/"
   xmlns:cc="http://creativecommons.org/ns#"
   xmlns:rdf="http://www.w3.org/1999/02/22-rdf-syntax-ns#"
   xmlns:svg="http://www.w3.org/2000/svg"
   xmlns="http://www.w3.org/2000/svg"
   xmlns:sodipodi="http://sodipodi.sourceforge.net/DTD/sodipodi-0.dtd"
   xmlns:inkscape="http://www.inkscape.org/namespaces/inkscape"
   width="1600"
   height="1200"
   id="svg4810"
   version="1.1"
   inkscape:version="0.91 r13725"
   viewBox="0 0 1600 1200"
   inkscape:export-filename="/Users/admin/Pictures/isitoko2.png"
   inkscape:export-xdpi="90"
   inkscape:export-ydpi="90"
   sodipodi:docname="isitoko2.svg">
  <defs
     id="defs4812">
    <marker
       inkscape:isstock="true"
       style="overflow:visible;"
       id="marker20637"
       refX="0.0"
       refY="0.0"
       orient="auto"
       inkscape:stockid="Arrow2Lend">
      <path
         transform="scale(1.1) rotate(180) translate(1,0)"
         d="M 8.7185878,4.0337352 L -2.2072895,0.016013256 L 8.7185884,-4.0017078 C 6.9730900,-1.6296469 6.9831476,1.6157441 8.7185878,4.0337352 z "
         style="fill-rule:evenodd;stroke-width:0.625;stroke-linejoin:round;stroke:#000000;stroke-opacity:1;fill:#000000;fill-opacity:1"
         id="path20639" />
    </marker>
    <marker
       inkscape:stockid="Arrow2Lend"
       orient="auto"
       refY="0.0"
       refX="0.0"
       id="Arrow2Lend"
       style="overflow:visible;"
       inkscape:isstock="true"
       inkscape:collect="always">
      <path
         id="path16914"
         style="fill-rule:evenodd;stroke-width:0.625;stroke-linejoin:round;stroke:#000000;stroke-opacity:1;fill:#000000;fill-opacity:1"
         d="M 8.7185878,4.0337352 L -2.2072895,0.016013256 L 8.7185884,-4.0017078 C 6.9730900,-1.6296469 6.9831476,1.6157441 8.7185878,4.0337352 z "
         transform="scale(1.1) rotate(180) translate(1,0)" />
    </marker>
    <marker
       inkscape:stockid="Arrow1Lend"
       orient="auto"
       refY="0.0"
       refX="0.0"
       id="marker20497"
       style="overflow:visible;"
       inkscape:isstock="true">
      <path
         id="path20499"
         d="M 0.0,0.0 L 5.0,-5.0 L -12.5,0.0 L 5.0,5.0 L 0.0,0.0 z "
         style="fill-rule:evenodd;stroke:#000000;stroke-width:1pt;stroke-opacity:1;fill:#000000;fill-opacity:1"
         transform="scale(0.8) rotate(180) translate(12.5,0)" />
    </marker>
    <marker
       inkscape:stockid="Arrow1Mend"
       orient="auto"
       refY="0.0"
       refX="0.0"
       id="Arrow1Mend"
       style="overflow:visible;"
       inkscape:isstock="true">
      <path
         id="path16902"
         d="M 0.0,0.0 L 5.0,-5.0 L -12.5,0.0 L 5.0,5.0 L 0.0,0.0 z "
         style="fill-rule:evenodd;stroke:#000000;stroke-width:1pt;stroke-opacity:1;fill:#000000;fill-opacity:1"
         transform="scale(0.4) rotate(180) translate(10,0)" />
    </marker>
    <marker
       inkscape:stockid="Arrow1Lend"
       orient="auto"
       refY="0.0"
       refX="0.0"
       id="Arrow1Lend"
       style="overflow:visible;"
       inkscape:isstock="true">
      <path
         id="path16896"
         d="M 0.0,0.0 L 5.0,-5.0 L -12.5,0.0 L 5.0,5.0 L 0.0,0.0 z "
         style="fill-rule:evenodd;stroke:#000000;stroke-width:1pt;stroke-opacity:1;fill:#000000;fill-opacity:1"
         transform="scale(0.8) rotate(180) translate(12.5,0)" />
    </marker>
    <inkscape:perspective
       sodipodi:type="inkscape:persp3d"
       inkscape:vp_x="461.28259 : 1236.4992 : 1"
       inkscape:vp_y="0 : 1000 : 0"
       inkscape:vp_z="2068.6312 : 887.3486 : 1"
       inkscape:persp3d-origin="1028.6312 : 567.3486 : 1"
       id="perspective5369" />
  </defs>
  <sodipodi:namedview
     id="base"
     pagecolor="#ffffff"
     bordercolor="#666666"
     borderopacity="1.0"
     inkscape:pageopacity="0.0"
     inkscape:pageshadow="2"
     inkscape:zoom="0.42426407"
     inkscape:cx="807.22158"
     inkscape:cy="568.98829"
     inkscape:current-layer="layer11"
     inkscape:document-units="px"
     showgrid="true"
     inkscape:window-width="1440"
     inkscape:window-height="808"
     inkscape:window-x="0"
     inkscape:window-y="1"
     inkscape:window-maximized="1">
    <inkscape:grid
       type="xygrid"
       id="grid5358" />
  </sodipodi:namedview>
  <metadata
     id="metadata4815">
    <rdf:RDF>
      <cc:Work
         rdf:about="">
        <dc:format>image/svg+xml</dc:format>
        <dc:type
           rdf:resource="http://purl.org/dc/dcmitype/StillImage" />
        <dc:title></dc:title>
      </cc:Work>
    </rdf:RDF>
  </metadata>
  <g
     id="layer1"
     inkscape:label="yuka"
     inkscape:groupmode="layer"
     sodipodi:insensitive="true">
    <ellipse
       style="opacity:1;fill:#e6e6e6;fill-opacity:1;stroke:#cccccc;stroke-width:2;stroke-linecap:round;stroke-miterlimit:4;stroke-dasharray:none;stroke-dashoffset:0;stroke-opacity:1"
       id="path5366"
       cx="790"
       cy="770"
       rx="630"
       ry="210" />
  </g>
  <g
     inkscape:groupmode="layer"
     id="layer6"
     inkscape:label="kabe"
     sodipodi:insensitive="true">
    <g
       sodipodi:type="inkscape:box3d"
       id="g5371"
       style="opacity:1;fill:#cccccc;fill-opacity:1;stroke:#cccccc;stroke-width:2;stroke-linecap:round;stroke-miterlimit:4;stroke-dasharray:none;stroke-dashoffset:0;stroke-opacity:1"
       inkscape:perspectiveID="#perspective5369"
       inkscape:corner0="-0.18367347 : 0.47755102 : 0 : 1"
       inkscape:corner7="-0.33333333 : 0.093333333 : 0.034114526 : 1">
      <path
         sodipodi:type="inkscape:box3dside"
         id="path5381"
         style="fill:#afafde;fill-rule:evenodd;stroke:none;stroke-width:1px;stroke-linecap:butt;stroke-linejoin:round;stroke-opacity:1"
         inkscape:box3dsidetype="13"
         d="M 1156.2846,668.87695 1312.3055,827.2267 1349.124,802.17681 1192.8824,654.58735 Z"
         points="1312.3055,827.2267 1349.124,802.17681 1192.8824,654.58735 1156.2846,668.87695 " />
      <path
         sodipodi:type="inkscape:box3dside"
         id="path5373"
         style="fill:#353564;fill-rule:evenodd;stroke:none;stroke-width:1px;stroke-linecap:butt;stroke-linejoin:round;stroke-opacity:1"
         inkscape:box3dsidetype="6"
         d="m 1156.2846,198.21029 0,470.66666 36.5978,-14.2896 0,-451.78638 z"
         points="1156.2846,668.87695 1192.8824,654.58735 1192.8824,202.80097 1156.2846,198.21029 " />
      <path
         sodipodi:type="inkscape:box3dside"
         id="path5383"
         style="fill:#e9e9ff;fill-rule:evenodd;stroke:none;stroke-width:1px;stroke-linecap:butt;stroke-linejoin:round;stroke-opacity:1"
         inkscape:box3dsidetype="11"
         d="m 1192.8824,202.80097 156.2416,51.10529 0,548.27055 -156.2416,-147.58946 z"
         points="1349.124,253.90626 1349.124,802.17681 1192.8824,654.58735 1192.8824,202.80097 " />
      <path
         sodipodi:type="inkscape:box3dside"
         id="path5375"
         style="fill:#4d4d9f;fill-rule:evenodd;stroke:none;stroke-width:1px;stroke-linecap:butt;stroke-linejoin:round;stroke-opacity:1"
         inkscape:box3dsidetype="5"
         d="m 1156.2846,198.21029 156.0209,52.68988 36.8185,3.00609 -156.2416,-51.10529 z"
         points="1312.3055,250.90017 1349.124,253.90626 1192.8824,202.80097 1156.2846,198.21029 " />
      <path
         sodipodi:type="inkscape:box3dside"
         id="path5379"
         style="fill:#d7d7ff;fill-rule:evenodd;stroke:none;stroke-width:1px;stroke-linecap:butt;stroke-linejoin:round;stroke-opacity:1"
         inkscape:box3dsidetype="14"
         d="m 1312.3055,250.90017 0,576.32653 36.8185,-25.04989 0,-548.27055 z"
         points="1312.3055,827.2267 1349.124,802.17681 1349.124,253.90626 1312.3055,250.90017 " />
      <path
         sodipodi:type="inkscape:box3dside"
         id="path5377"
         style="fill:#8686bf;fill-rule:evenodd;stroke:none;stroke-width:1px;stroke-linecap:butt;stroke-linejoin:round;stroke-opacity:1"
         inkscape:box3dsidetype="3"
         d="m 1156.2846,198.21029 156.0209,52.68988 0,576.32653 -156.0209,-158.34975 z"
         points="1312.3055,250.90017 1312.3055,827.2267 1156.2846,668.87695 1156.2846,198.21029 " />
    </g>
  </g>
  <g
     inkscape:groupmode="layer"
     id="layer10"
     inkscape:label="nami"
     sodipodi:insensitive="true">
    <path
       sodipodi:type="spiral"
       style="fill:none;fill-rule:evenodd;stroke:#4d4d4d;stroke-width:2;stroke-linecap:butt;stroke-linejoin:miter;stroke-miterlimit:4;stroke-dasharray:none;stroke-opacity:1"
       id="path20454"
       sodipodi:cx="580"
       sodipodi:cy="200"
       sodipodi:expansion="1"
       sodipodi:revolution="3"
       sodipodi:radius="156.20499"
       sodipodi:argument="-21.29641"
       sodipodi:t0="0.11933746"
       d="m 598.27911,196.34418 c 8.74725,12.36446 0.16518,28.73715 -12.07043,34.69923 -19.67108,9.58517 -42.35554,-3.14624 -50.01639,-22.28187 -10.70937,-26.75037 6.44012,-56.11582 32.49331,-65.33355 33.76509,-11.94622 69.93756,9.72197 80.65071,42.70475 13.23733,40.75404 -12.99656,83.79182 -52.91619,95.96787 -47.7304,14.55844 -97.66546,-16.26667 -111.28503,-63.12763 C 469.23728,164.27322 504.66896,107.42139 558.47416,92.370795 620.139,75.121673 683.92041,115.16988 700.3935,175.9213 719.00214,244.54843 674.33059,315.2683 606.63156,333.1578 531.04407,353.13184 453.37932,303.83209 434.0779,229.18442 422.59574,184.77751 432.60355,136.66318 460.00007,99.999921"
       transform="matrix(0.94391894,0.33017728,-0.33017728,0.94391894,107.23624,-173.57735)" />
    <path
       style="opacity:1;fill:#ffffff;fill-opacity:1;stroke:#ffffff;stroke-width:2;stroke-linecap:round;stroke-miterlimit:4;stroke-dasharray:none;stroke-dashoffset:0;stroke-opacity:1"
       id="path20456"
       sodipodi:type="arc"
       sodipodi:cx="8.9818354"
       sodipodi:cy="-624.18842"
       sodipodi:rx="165.649"
       sodipodi:ry="192.24316"
       sodipodi:start="0.27982875"
       sodipodi:end="4.1577412"
       d="M 168.18755,-571.09257 A 165.649,192.24316 0 0 1 8.7052171,-431.94552 165.649,192.24316 0 0 1 -150.37579,-571.70995 165.649,192.24316 0 0 1 -78.256204,-787.61164 l 87.2380394,163.42322 z"
       transform="matrix(-0.33017728,0.94391894,-0.94391894,-0.33017728,0,0)" />
  </g>
  <g
     inkscape:groupmode="layer"
     id="layer11"
     inkscape:label="nami 1"
     sodipodi:insensitive="true">
    <path
       style="fill:#000000;fill-rule:evenodd;stroke:#000000;stroke-width:2.07600641;stroke-linecap:butt;stroke-linejoin:miter;stroke-miterlimit:4;stroke-dasharray:8.3040257, 4.15201285;stroke-dashoffset:0;stroke-opacity:1;marker-end:url(#Arrow2Lend)"
       d="M 584.67561,223.50819 440.05935,619.8701"
       id="path20469"
       inkscape:connector-curvature="0" />
    <path
       style="fill:none;fill-rule:evenodd;stroke:#000000;stroke-width:2;stroke-linecap:butt;stroke-linejoin:miter;stroke-miterlimit:4;stroke-dasharray:6, 6;stroke-dashoffset:0;stroke-opacity:1;marker-end:url(#marker20637)"
       d="M 600,220 1220,420 500,640"
       id="path20629"
       inkscape:connector-curvature="0" />
  </g>
  <g
     inkscape:groupmode="layer"
     id="layer7"
     inkscape:label="oto"
     sodipodi:insensitive="true">
    <path
       id="path11117"
       style="opacity:1;fill:#000000;fill-opacity:1;stroke:#000000;stroke-width:2.5497613;stroke-linecap:round;stroke-miterlimit:4;stroke-dasharray:none;stroke-dashoffset:0;stroke-opacity:1"
       d="m 566.76766,214.63668 c -2.19427,-0.91857 -4.53748,-3.61795 -4.53748,-5.22716 0,-3.44197 3.46216,-7.81962 8.05999,-10.19125 2.86686,-1.47877 9.30956,-2.25319 12.70476,-1.52712 2.54762,0.54481 5.02728,3.25625 5.02728,5.49721 0,3.72905 -4.8895,8.95069 -10.06665,10.75046 -3.87286,1.34635 -8.89107,1.65937 -11.1879,0.69786 z m 0.47763,1.94699 c -10.32477,-3.11546 -7.71506,-14.7901 4.41869,-19.76717 1.92694,-0.7904 4.02769,-1.14691 7.04444,-1.19547 3.70932,-0.0597 4.62268,0.11741 6.662,1.29195 1.29983,0.74863 2.77212,2.00366 3.27177,2.78896 3.03716,4.77356 -1.84766,12.57061 -9.85078,15.72361 -3.17786,1.25199 -9.22492,1.85853 -11.54612,1.15812 z m 44.24455,-38.99709 c -0.86812,-2.19908 -2.31366,-4.97751 -3.21232,-6.17429 -2.27777,-3.0334 -7.73307,-6.0181 -12.34922,-6.75648 l -3.60742,-0.57704 0,-3.77907 0,-3.77906 2.50756,0.37272 c 4.44794,0.66115 8.41978,2.00047 10.59425,3.57243 2.68371,1.9401 6.18169,7.76962 7.44784,12.41211 0.95432,3.49912 1.2559,7.96148 0.57071,8.44421 -0.20516,0.14454 -1.08329,-1.53645 -1.9514,-3.73553 z m -20.5432,-22.21743 c 6.87461,1.59729 14.57041,0.85434 19.06303,9.23981 4.47371,6.88583 5.46864,13.77166 3.5752,20.65749 -2.78678,-7.67772 -5.51461,-15.69142 -9.53855,-16.31782 -4.99402,-4.33967 -8.91747,-3.14518 -13.09968,-4.33967 m 0,-9.23981 0,46.19909 0,-46.19909 z m -12.37141,38.58707 a 11.388769,16.44049 67.759113 0 0 -6.28307,1.14776 11.388769,16.44049 67.759113 0 0 -12.70902,16.27931 11.388769,16.44049 67.759113 0 0 18.40593,5.88903 11.388769,16.44049 67.759113 0 0 12.70902,-16.27931 11.388769,16.44049 67.759113 0 0 -12.12286,-7.03679 z"
       inkscape:connector-curvature="0" />
  </g>
  <g
     inkscape:groupmode="layer"
     id="layer8"
     inkscape:label="hito"
     sodipodi:insensitive="true">
    <circle
       style="opacity:1;fill:#000000;fill-opacity:1;stroke:#000000;stroke-width:3.18690562;stroke-linecap:round;stroke-miterlimit:4;stroke-dasharray:none;stroke-dashoffset:0;stroke-opacity:1"
       id="path16884"
       cx="427.05426"
       cy="668.05927"
       r="19.121433" />
  </g>
  <g
     inkscape:groupmode="layer"
     id="layer9"
     inkscape:label="hitomiti"
     sodipodi:insensitive="true">
    <path
       style="fill:none;fill-rule:evenodd;stroke:#000000;stroke-width:3;stroke-linecap:butt;stroke-linejoin:miter;stroke-miterlimit:4;stroke-dasharray:none;stroke-opacity:1;marker-end:url(#Arrow1Lend)"
       d="m 440,680 c 31.59561,31.59561 80,20 83.72804,102.74863 5.34093,118.54877 92.48261,113.63278 130.83468,41.06625 C 720,700 820,800 851.54286,852.72723 c 42.56299,71.14852 112.02737,29.62979 152.02734,29.62979"
       id="path16887"
       inkscape:connector-curvature="0"
       sodipodi:nodetypes="csssc" />
  </g>
</svg>
