<?xml version="1.0" encoding="UTF-8" standalone="no"?>
<!-- Created with Inkscape (http://www.inkscape.org/) -->

<svg
   xmlns:dc="http://purl.org/dc/elements/1.1/"
   xmlns:cc="http://creativecommons.org/ns#"
   xmlns:rdf="http://www.w3.org/1999/02/22-rdf-syntax-ns#"
   xmlns:svg="http://www.w3.org/2000/svg"
   xmlns="http://www.w3.org/2000/svg"
   xmlns:sodipodi="http://sodipodi.sourceforge.net/DTD/sodipodi-0.dtd"
   xmlns:inkscape="http://www.inkscape.org/namespaces/inkscape"
   width="1600px"
   height="1200px"
   id="svg4478"
   version="1.1"
   inkscape:version="0.48.4 r9939"
   sodipodi:docname="isitoko_8.eps"
   inkscape:export-filename="/home/kaiki/ピクチャ/isitoko/isitoko_8.png"
   inkscape:export-xdpi="90"
   inkscape:export-ydpi="90">
  <sodipodi:namedview
     id="base"
     pagecolor="#ffffff"
     bordercolor="#666666"
     borderopacity="1.0"
     inkscape:pageopacity="0.0"
     inkscape:pageshadow="2"
     inkscape:zoom="0.6"
     inkscape:cx="510.14056"
     inkscape:cy="600"
     inkscape:current-layer="layer14"
     inkscape:document-units="px"
     showgrid="true"
     inkscape:window-width="1855"
     inkscape:window-height="1176"
     inkscape:window-x="65"
     inkscape:window-y="24"
     inkscape:window-maximized="1">
    <inkscape:grid
       type="xygrid"
       id="grid4486" />
  </sodipodi:namedview>
  <defs
     id="defs4480">
    <marker
       inkscape:stockid="Arrow2Lend"
       orient="auto"
       refY="0.0"
       refX="0.0"
       id="Arrow2Lend"
       style="overflow:visible;">
      <path
         id="path3823"
         style="fill-rule:evenodd;stroke-width:0.62500000;stroke-linejoin:round;"
         d="M 8.7185878,4.0337352 L -2.2072895,0.016013256 L 8.7185884,-4.0017078 C 6.9730900,-1.6296469 6.9831476,1.6157441 8.7185878,4.0337352 z "
         transform="scale(1.1) rotate(180) translate(1,0)" />
    </marker>
    <marker
       inkscape:stockid="TriangleOutL"
       orient="auto"
       refY="0.0"
       refX="0.0"
       id="TriangleOutL"
       style="overflow:visible">
      <path
         id="path3944"
         d="M 5.77,0.0 L -2.88,5.0 L -2.88,-5.0 L 5.77,0.0 z "
         style="fill-rule:evenodd;stroke:#000000;stroke-width:1.0pt"
         transform="scale(0.8)" />
    </marker>
    <inkscape:perspective
       sodipodi:type="inkscape:persp3d"
       inkscape:vp_x="0 : 600 : 1"
       inkscape:vp_y="0 : 1000 : 0"
       inkscape:vp_z="1600 : 600 : 1"
       inkscape:persp3d-origin="800 : 400 : 1"
       id="perspective4996" />
  </defs>
  <metadata
     id="metadata4483">
    <rdf:RDF>
      <cc:Work
         rdf:about="">
        <dc:format>image/svg+xml</dc:format>
        <dc:type
           rdf:resource="http://purl.org/dc/dcmitype/StillImage" />
        <dc:title></dc:title>
      </cc:Work>
    </rdf:RDF>
  </metadata>
  <g
     inkscape:groupmode="layer"
     id="layer16"
     inkscape:label="nami"
     sodipodi:insensitive="true">
    <g
       id="g10524"
       transform="matrix(0.61469353,0.78876604,-0.78876604,0.61469353,211.99964,371.60858)">
      <g
         id="g10515">
        <path
           sodipodi:type="arc"
           style="fill:none;stroke:#000000;stroke-width:1;stroke-miterlimit:4;stroke-opacity:1;stroke-dasharray:none;stroke-dashoffset:0"
           id="path10500"
           sodipodi:cx="30"
           sodipodi:cy="80"
           sodipodi:rx="140"
           sodipodi:ry="140"
           d="m 170,80 c 0,77.31986 -62.68014,140 -140,140 -77.319865,0 -140,-62.68014 -140,-140 0,-77.319865 62.680135,-140 140,-140 76.30602,0 138.55821,61.1062104 139.97584,137.399061"
           sodipodi:start="0"
           sodipodi:end="6.2646061"
           sodipodi:open="true"
           transform="translate(-10,0)" />
        <path
           sodipodi:type="arc"
           style="fill:none;stroke:#000000;stroke-width:1;stroke-miterlimit:4;stroke-opacity:1;stroke-dasharray:none;stroke-dashoffset:0"
           id="path10504"
           sodipodi:cx="260"
           sodipodi:cy="-20"
           sodipodi:rx="120"
           sodipodi:ry="120"
           d="m 380,-20 c 0,66.27417 -53.72583,120 -120,120 -66.27417,0 -120,-53.72583 -120,-120 0,-66.27417 53.72583,-120 120,-120 66.27417,0 120,53.72583 120,120 z"
           transform="translate(-240,100)" />
        <path
           sodipodi:type="arc"
           style="fill:none;stroke:#000000;stroke-width:1;stroke-miterlimit:4;stroke-opacity:1;stroke-dasharray:none;stroke-dashoffset:0"
           id="path10506"
           sodipodi:cx="380"
           sodipodi:cy="100"
           sodipodi:rx="100"
           sodipodi:ry="100"
           d="M 480,100 C 480,155.22847 435.22847,200 380,200 324.77153,200 280,155.22847 280,100 280,44.771525 324.77153,0 380,0 435.22847,0 480,44.771525 480,100 z"
           transform="translate(-360,-20)" />
        <path
           sodipodi:type="arc"
           style="fill:none;stroke:#000000;stroke-width:1;stroke-miterlimit:4;stroke-opacity:1;stroke-dasharray:none;stroke-dashoffset:0"
           id="path10508"
           sodipodi:cx="280"
           sodipodi:cy="0"
           sodipodi:rx="80"
           sodipodi:ry="80"
           d="m 360,0 c 0,44.18278 -35.81722,80 -80,80 -44.18278,0 -80,-35.81722 -80,-80 0,-44.18278 35.81722,-80 80,-80 44.18278,0 80,35.81722 80,80 z"
           transform="translate(-260,80)" />
        <path
           sodipodi:type="arc"
           style="fill:none;stroke:#000000;stroke-width:1;stroke-miterlimit:4;stroke-opacity:1;stroke-dasharray:none;stroke-dashoffset:0"
           id="path10513"
           sodipodi:cx="330"
           sodipodi:cy="90"
           sodipodi:rx="60"
           sodipodi:ry="62"
           d="m 390,90 c 0,34.24165 -26.86292,62 -60,62 -33.13708,0 -60,-27.75835 -60,-62 0,-34.241654 26.86292,-62 60,-62 33.13708,0 60,27.758346 60,62 z"
           transform="translate(-310,-8)" />
      </g>
      <path
         transform="translate(-351,-8)"
         sodipodi:end="4.7217345"
         sodipodi:start="0"
         d="m 540,90 c 0,93.88841 -76.11159,170 -170,170 -93.88841,0 -170,-76.11159 -170,-170 0,-93.8884075 76.11159,-170 170,-170 0.52958,0 1.05916,0.0025 1.58872,0.0074 L 370,90 z"
         sodipodi:ry="170"
         sodipodi:rx="170"
         sodipodi:cy="90"
         sodipodi:cx="370"
         id="path10522"
         style="fill:#ffffff;stroke:none"
         sodipodi:type="arc" />
    </g>
  </g>
  <g
     inkscape:groupmode="layer"
     id="layer5"
     inkscape:label="hakoiro"
     sodipodi:insensitive="true">
    <path
       style="fill:#ececec;fill-opacity:1;fill-rule:nonzero;stroke:#e6e6e6;stroke-width:1.66666663;stroke-miterlimit:4;stroke-opacity:1;stroke-dasharray:3.33333334, 6.66666667;stroke-dashoffset:0"
       d="M 909.58735,585.25 842.14056,421.5 841.70451,214.95283 C 841.46468,101.3519 841.56178,8.7268997 841.92028,9.119505 c 0.35849,0.3926055 26.64625,64.088828 58.41723,141.547165 31.77097,77.45833 58.49274,142.14583 59.38169,143.75 1.06294,1.91813 1.04085,2.91666 -0.0645,2.91666 -0.92443,0 -1.68078,0.75 -1.68078,1.66667 0,0.91667 0.97782,1.66667 2.17293,1.66667 1.20591,0 5.65622,8.52223 10,19.14978 l 7.82707,19.14978 0,59.04465 c 0,45.75067 -0.46907,59.20255 -2.08334,59.74587 -1.64947,0.55515 -1.65711,1.21783 -0.0367,3.1821 1.58155,1.91715 2.05908,34.92927 2.10139,145.27103 C 977.98536,684.74445 977.79043,749 977.52206,749 977.2537,749 946.68308,675.3125 909.58735,585.25 z m 66.71988,-130.3183 c 0,-0.40423 -0.75,-1.1985 -1.66667,-1.76503 -0.91666,-0.56654 -1.66666,-0.2358 -1.66666,0.73496 0,0.97077 0.75,1.76504 1.66666,1.76504 0.91667,0 1.66667,-0.33074 1.66667,-0.73497 z M 972.9739,449 c 0,-0.91667 -0.79427,-1.66667 -1.76503,-1.66667 -0.97077,0 -1.30151,0.75 -0.73497,1.66667 0.56653,0.91667 1.36079,1.66667 1.76502,1.66667 0.40424,0 0.73498,-0.75 0.73498,-1.66667 z m -2.57118,-4.88483 c 0.52739,-0.85334 0.19665,-2.0226 -0.73497,-2.59837 -0.93162,-0.57577 -1.69385,0.1224 -1.69385,1.5515 0,2.92755 1.00009,3.3586 2.42882,1.04687 l 0,0 z m -4.09549,-11.78184 c 0,-0.91666 -0.79426,-1.66666 -1.76503,-1.66666 -0.97076,0 -1.3015,0.75 -0.73497,1.66666 0.56653,0.91667 1.36079,1.66667 1.76503,1.66667 0.40423,0 0.73497,-0.75 0.73497,-1.66667 z m -2.57118,-4.88483 c 0.52739,-0.85333 0.19665,-2.0226 -0.73497,-2.59837 -0.93162,-0.57576 -1.69385,0.1224 -1.69385,1.5515 0,2.92755 1.00009,3.3586 2.42882,1.04687 z m -3.08854,-9.66378 c -1.6942,-1.69419 -3.09208,0.85648 -1.70203,3.10563 1.05006,1.69903 1.44263,1.70035 2.00717,0.007 0.38599,-1.15799 0.24868,-2.55855 -0.30514,-3.11237 l 0,7e-5 z m -111.45834,1.875 c -0.55382,-0.55382 -1.99132,-0.61302 -3.19444,-0.13157 -1.32956,0.53203 -0.93463,0.92697 1.00694,1.00693 1.75695,0.0723 2.74132,-0.32155 2.1875,-0.87536 l 0,0 z m 30,0 c -0.55382,-0.55382 -1.99132,-0.61302 -3.19444,-0.1315 -1.32956,0.53203 -0.93463,0.92696 1.00694,1.00693 1.75695,0.0723 2.74132,-0.32155 2.1875,-0.87537 l 0,-6e-5 z m 30,0 c -0.55382,-0.55382 -1.99132,-0.61302 -3.19444,-0.1315 -1.32956,0.53203 -0.93463,0.92696 1.00694,1.00693 1.75695,0.0723 2.74132,-0.32155 2.1875,-0.87537 l 0,-6e-5 z m 30,0 c -0.55382,-0.55382 -1.99132,-0.61302 -3.19444,-0.1315 -1.32956,0.53203 -0.93463,0.92696 1.00694,1.00693 1.75695,0.0723 2.74132,-0.32155 2.1875,-0.87537 l 0,-6e-5 z m 22.11806,-7.32639 c 0,-0.91666 -0.75,-1.66666 -1.66667,-1.66666 -0.91666,0 -1.66666,0.75 -1.66666,1.66666 0,0.91667 0.75,1.66667 1.66666,1.66667 0.91667,0 1.66667,-0.75 1.66667,-1.66667 z m 0,-5 c 0,-0.91666 -0.75,-1.66666 -1.66667,-1.66666 -0.91666,0 -1.66666,0.75 -1.66666,1.66666 0,0.91667 0.75,1.66667 1.66666,1.66667 0.91667,0 1.66667,-0.75 1.66667,-1.66667 z m 0,-6.66666 c 0,-0.91667 -0.75,-1.66667 -1.66667,-1.66667 -0.91666,0 -1.66666,0.75 -1.66666,1.66667 0,0.91666 0.75,1.66666 1.66666,1.66666 0.91667,0 1.66667,-0.75 1.66667,-1.66666 z m 0,-5 c 0,-0.91667 -0.75,-1.66667 -1.66667,-1.66667 -0.91666,0 -1.66666,0.75 -1.66666,1.66667 0,0.91666 0.75,1.66666 1.66666,1.66666 0.91667,0 1.66667,-0.75 1.66667,-1.66666 z m 0,-6.66667 c 0,-0.91667 -0.75,-1.66667 -1.66667,-1.66667 -0.91666,0 -1.66666,0.75 -1.66666,1.66667 0,0.91667 0.75,1.66667 1.66666,1.66667 0.91667,0 1.66667,-0.75 1.66667,-1.66667 z m 0,-6.66667 c 0,-0.91666 -0.75,-1.66666 -1.66667,-1.66666 -0.91666,0 -1.66666,0.75 -1.66666,1.66666 0,0.91667 0.75,1.66667 1.66666,1.66667 0.91667,0 1.66667,-0.75 1.66667,-1.66667 z m 0,-5 c 0,-0.91666 -0.75,-1.66666 -1.66667,-1.66666 -0.91666,0 -1.66666,0.75 -1.66666,1.66666 0,0.91667 0.75,1.66667 1.66666,1.66667 0.91667,0 1.66667,-0.75 1.66667,-1.66667 z m 0,-6.66666 c 0,-0.91667 -0.75,-1.66667 -1.66667,-1.66667 -0.91666,0 -1.66666,0.75 -1.66666,1.66667 0,0.91666 0.75,1.66666 1.66666,1.66666 0.91667,0 1.66667,-0.75 1.66667,-1.66666 z m 0,-5 c 0,-0.91667 -0.75,-1.66667 -1.66667,-1.66667 -0.91666,0 -1.66666,0.75 -1.66666,1.66667 0,0.91666 0.75,1.66666 1.66666,1.66666 0.91667,0 1.66667,-0.75 1.66667,-1.66666 z m 0,-6.66667 c 0,-0.91667 -0.75,-1.66667 -1.66667,-1.66667 -0.91666,0 -1.66666,0.75 -1.66666,1.66667 0,0.91667 0.75,1.66667 1.66666,1.66667 0.91667,0 1.66667,-0.75 1.66667,-1.66667 z m 0,-6.66667 c 0,-0.91666 -0.75,-1.66666 -1.66667,-1.66666 -0.91666,0 -1.66666,0.75 -1.66666,1.66666 0,0.91667 0.75,1.66667 1.66666,1.66667 0.91667,0 1.66667,-0.75 1.66667,-1.66667 z m 0,-5 c 0,-0.91666 -0.75,-1.66666 -1.66667,-1.66666 -0.91666,0 -1.66666,0.75 -1.66666,1.66666 0,0.91667 0.75,1.66667 1.66666,1.66667 0.91667,0 1.66667,-0.75 1.66667,-1.66667 z m 0,-6.66666 c 0,-0.91667 -0.75,-1.66667 -1.66667,-1.66667 -0.91666,0 -1.66666,0.75 -1.66666,1.66667 0,0.91666 0.75,1.66666 1.66666,1.66666 0.91667,0 1.66667,-0.75 1.66667,-1.66666 z m 0,-5 c 0,-0.91667 -0.75,-1.66667 -1.66667,-1.66667 -0.91666,0 -1.66666,0.75 -1.66666,1.66667 0,0.91666 0.75,1.66666 1.66666,1.66666 0.91667,0 1.66667,-0.75 1.66667,-1.66666 z m 0,-6.66667 c 0,-0.91667 -0.75,-1.66667 -1.66667,-1.66667 -0.91666,0 -1.66666,0.75 -1.66666,1.66667 0,0.91667 0.75,1.66667 1.66666,1.66667 0.91667,0 1.66667,-0.75 1.66667,-1.66667 z m 0,-6.66667 c 0,-0.91666 -0.75,-1.66666 -1.66667,-1.66666 -0.91666,0 -1.66666,0.75 -1.66666,1.66666 0,0.91667 0.75,1.66667 1.66666,1.66667 0.91667,0 1.66667,-0.75 1.66667,-1.66667 z m 0,-5 c 0,-0.91666 -0.75,-1.66666 -1.66667,-1.66666 -0.91666,0 -1.66666,0.75 -1.66666,1.66666 0,0.91667 0.75,1.66667 1.66666,1.66667 0.91667,0 1.66667,-0.75 1.66667,-1.66667 z m 0,-6.66666 c 0,-0.91667 -0.75,-1.66667 -1.66667,-1.66667 -0.91666,0 -1.66666,0.75 -1.66666,1.66667 0,0.91666 0.75,1.66666 1.66666,1.66666 0.91667,0 1.66667,-0.75 1.66667,-1.66666 z m 0,-5 c 0,-0.91667 -0.75,-1.66667 -1.66667,-1.66667 -0.91666,0 -1.66666,0.75 -1.66666,1.66667 0,0.91666 0.75,1.66666 1.66666,1.66666 0.91667,0 1.66667,-0.75 1.66667,-1.66666 z"
       id="path7410"
       inkscape:connector-curvature="0" />
    <path
       style="fill:#ececec;fill-opacity:1;fill-rule:nonzero;stroke:#e6e6e6;stroke-width:1.66666663;stroke-miterlimit:4;stroke-opacity:1;stroke-dasharray:3.33333334, 6.66666667;stroke-dashoffset:0"
       d="m 981.30723,618.0683 c 0,-93.53005 0.56057,-140.58524 1.66667,-139.90163 0.91666,0.56653 1.66666,-0.13921 1.66666,-1.56831 0,-1.4291 -0.71762,-2.59836 -1.59472,-2.59836 -0.98683,0 -1.6352,-25.41253 -1.70091,-66.66667 l -0.1062,-66.66666 58.38597,0 58.3859,0 -0.056,209.16666 -0.056,209.16667 -58.2957,0 -58.29577,0 0,-140.9317 z m 114.99997,130 c 0,-1.4291 -0.7622,-2.12727 -1.6938,-1.5515 -0.9316,0.57577 -1.2624,1.74503 -0.735,2.59837 1.4287,2.31173 2.4288,1.88068 2.4288,-1.04687 z m -1.6666,-5.73497 c 0,-0.91666 -0.75,-1.66666 -1.6667,-1.66666 -0.9167,0 -1.6667,0.75 -1.6667,1.66666 0,0.91667 0.75,1.66667 1.6667,1.66667 0.9167,0 1.6667,-0.75 1.6667,-1.66667 z m -1.6667,-4.0683 c 0,-0.40423 -0.75,-1.1985 -1.6667,-1.76503 -0.9166,-0.56653 -1.6666,-0.2358 -1.6666,0.73497 0,0.97076 0.75,1.76503 1.6666,1.76503 0.9167,0 1.6667,-0.33073 1.6667,-0.73497 z m -3.3333,-6.8634 c 0,-1.4291 -0.7623,-2.12726 -1.6939,-1.5515 -0.9316,0.57577 -1.2623,1.74504 -0.735,2.59837 1.4288,2.31173 2.4289,1.88068 2.4289,-1.04687 z m -1.6667,-4.80326 c 0,-0.40424 -0.75,-1.1985 -1.6667,-1.76504 -0.9166,-0.56653 -1.6666,-0.2358 -1.6666,0.73497 0,0.97077 0.75,1.76503 1.6666,1.76503 0.9167,0 1.6667,-0.33073 1.6667,-0.73496 z m -5,-11.8634 c 0,-1.4291 -0.7622,-2.12727 -1.6939,-1.5515 -0.9316,0.57576 -1.2623,1.74503 -0.7349,2.59836 1.4287,2.31174 2.4288,1.88069 2.4288,-1.04686 z m -1.6667,-4.80327 c 0,-0.40423 -0.75,-1.1985 -1.6666,-1.76503 -0.9167,-0.56654 -1.6667,-0.2358 -1.6667,0.73496 0,0.97077 0.75,1.76504 1.6667,1.76504 0.9166,0 1.6666,-0.33074 1.6666,-0.73497 z M 1077.9739,704 c 0,-0.91667 -0.7943,-1.66667 -1.765,-1.66667 -0.9708,0 -1.3015,0.75 -0.735,1.66667 0.5665,0.91667 1.3608,1.66667 1.765,1.66667 0.4043,0 0.735,-0.75 0.735,-1.66667 z m -1.6667,-5 c 0,-0.91667 -0.75,-1.66667 -1.6666,-1.66667 -0.9167,0 -1.6667,0.75 -1.6667,1.66667 0,0.91667 0.75,1.66667 1.6667,1.66667 0.9166,0 1.6666,-0.75 1.6666,-1.66667 z m -1.6666,-5.73497 c 0,-0.40423 -0.75,-1.1985 -1.6667,-1.76503 -0.9167,-0.56653 -1.6667,-0.2358 -1.6667,0.73497 0,0.97076 0.75,1.76503 1.6667,1.76503 0.9167,0 1.6667,-0.33073 1.6667,-0.73497 z m -3.3334,-5.9317 c 0,-0.91666 -0.7942,-1.66666 -1.765,-1.66666 -0.9708,0 -1.3015,0.75 -0.735,1.66666 0.5666,0.91667 1.3608,1.66667 1.7651,1.66667 0.4042,0 0.7349,-0.75 0.7349,-1.66667 z m -1.6666,-5 c 0,-0.91666 -0.75,-1.66666 -1.6667,-1.66666 -0.9167,0 -1.6667,0.75 -1.6667,1.66666 0,0.91667 0.75,1.66667 1.6667,1.66667 0.9167,0 1.6667,-0.75 1.6667,-1.66667 z m -5,-11.66666 c 0,-0.91667 -0.75,-1.66667 -1.6667,-1.66667 -0.9167,0 -1.6667,0.75 -1.6667,1.66667 0,0.91666 0.75,1.66666 1.6667,1.66666 0.9167,0 1.6667,-0.75 1.6667,-1.66666 z m -1.6667,-5 c 0,-0.91667 -0.75,-1.66667 -1.6667,-1.66667 -0.9166,0 -1.6666,0.75 -1.6666,1.66667 0,0.91666 0.75,1.66666 1.6666,1.66666 0.9167,0 1.6667,-0.75 1.6667,-1.66666 z M 1059.6406,659 c 0,-0.91667 -0.7943,-1.66667 -1.7651,-1.66667 -0.9707,0 -1.3015,0.75 -0.7349,1.66667 0.5665,0.91667 1.3608,1.66667 1.765,1.66667 0.4042,0 0.735,-0.75 0.735,-1.66667 z m -1.6667,-5 c 0,-0.91667 -0.75,-1.66667 -1.6667,-1.66667 -0.9166,0 -1.6666,0.75 -1.6666,1.66667 0,0.91667 0.75,1.66667 1.6666,1.66667 0.9167,0 1.6667,-0.75 1.6667,-1.66667 z m -1.6667,-5 c 0,-0.91667 -0.75,-1.66667 -1.6666,-1.66667 -0.9167,0 -1.6667,0.75 -1.6667,1.66667 0,0.91667 0.75,1.66667 1.6667,1.66667 0.9166,0 1.6666,-0.75 1.6666,-1.66667 z m -3.3333,-6.66667 c 0,-0.91666 -0.75,-1.66666 -1.6667,-1.66666 -0.9166,0 -1.6666,0.75 -1.6666,1.66666 0,0.91667 0.75,1.66667 1.6666,1.66667 0.9167,0 1.6667,-0.75 1.6667,-1.66667 z m -1.6667,-5 c 0,-0.91666 -0.75,-1.66666 -1.6666,-1.66666 -0.9167,0 -1.6667,0.75 -1.6667,1.66666 0,0.91667 0.75,1.66667 1.6667,1.66667 0.9166,0 1.6666,-0.75 1.6666,-1.66667 z m -5,-11.66666 c 0,-0.91667 -0.75,-1.66667 -1.6666,-1.66667 -0.9167,0 -1.6667,0.75 -1.6667,1.66667 0,0.91666 0.75,1.66666 1.6667,1.66666 0.9166,0 1.6666,-0.75 1.6666,-1.66666 z m -1.6666,-5 c 0,-0.91667 -0.75,-1.66667 -1.6667,-1.66667 -0.9167,0 -1.6667,0.75 -1.6667,1.66667 0,0.91666 0.75,1.66666 1.6667,1.66666 0.9167,0 1.6667,-0.75 1.6667,-1.66666 z m -3.3334,-5 c 0,-0.91667 -0.7942,-1.66667 -1.765,-1.66667 -0.9708,0 -1.3015,0.75 -0.735,1.66667 0.5666,0.91666 1.3608,1.66666 1.7651,1.66666 0.4042,0 0.7349,-0.75 0.7349,-1.66666 z M 1039.6406,609 c 0,-0.91667 -0.75,-1.66667 -1.6667,-1.66667 -0.9167,0 -1.6667,0.75 -1.6667,1.66667 0,0.91667 0.75,1.66667 1.6667,1.66667 0.9167,0 1.6667,-0.75 1.6667,-1.66667 z m -1.6667,-4.0683 c 0,-0.40423 -0.75,-1.1985 -1.6667,-1.76503 -0.9166,-0.56654 -1.6666,-0.2358 -1.6666,0.73496 0,0.97077 0.75,1.76504 1.6666,1.76504 0.9167,0 1.6667,-0.33074 1.6667,-0.73497 z M 1034.6406,599 c 0,-0.91667 -0.7943,-1.66667 -1.7651,-1.66667 -0.9707,0 -1.3015,0.75 -0.7349,1.66667 0.5665,0.91667 1.3608,1.66667 1.765,1.66667 0.4042,0 0.735,-0.75 0.735,-1.66667 z m -1.6667,-6.66667 c 0,-0.91666 -0.75,-1.66666 -1.6667,-1.66666 -0.9166,0 -1.6666,0.75 -1.6666,1.66666 0,0.91667 0.75,1.66667 1.6666,1.66667 0.9167,0 1.6667,-0.75 1.6667,-1.66667 z m -5,-10 c 0,-0.91666 -0.7943,-1.66666 -1.765,-1.66666 -0.9708,0 -1.3015,0.75 -0.735,1.66666 0.5665,0.91667 1.3608,1.66667 1.765,1.66667 0.4043,0 0.735,-0.75 0.735,-1.66667 z m -1.6667,-5.73496 c 0,-0.40424 -0.75,-1.1985 -1.6666,-1.76504 -0.9167,-0.56653 -1.6667,-0.2358 -1.6667,0.73497 0,0.97077 0.75,1.76503 1.6667,1.76503 0.9166,0 1.6666,-0.33073 1.6666,-0.73496 z m -5,-10.9317 c 0,-0.91667 -0.75,-1.66667 -1.6666,-1.66667 -0.9167,0 -1.6667,0.75 -1.6667,1.66667 0,0.91666 0.75,1.66666 1.6667,1.66666 0.9166,0 1.6666,-0.75 1.6666,-1.66666 z m -1.6666,-5.73497 c 0,-0.40423 -0.75,-1.1985 -1.6667,-1.76503 -0.9167,-0.56654 -1.6667,-0.2358 -1.6667,0.73496 0,0.97077 0.75,1.76504 1.6667,1.76504 0.9167,0 1.6667,-0.33074 1.6667,-0.73497 z M 1016.3072,554 c 0,-0.91667 -0.7942,-1.66667 -1.765,-1.66667 -0.9708,0 -1.3015,0.75 -0.735,1.66667 0.5666,0.91667 1.3608,1.66667 1.7651,1.66667 0.4042,0 0.7349,-0.75 0.7349,-1.66667 z m -1.6666,-5 c 0,-0.91667 -0.75,-1.66667 -1.6667,-1.66667 -0.9167,0 -1.6667,0.75 -1.6667,1.66667 0,0.91667 0.75,1.66667 1.6667,1.66667 0.9167,0 1.6667,-0.75 1.6667,-1.66667 z m -1.6667,-5.73497 c 0,-0.40423 -0.75,-1.1985 -1.6667,-1.76503 -0.9166,-0.56653 -1.6666,-0.2358 -1.6666,0.73497 0,0.97076 0.75,1.76503 1.6666,1.76503 0.9167,0 1.6667,-0.33073 1.6667,-0.73497 z m -3.3333,-5.9317 c 0,-0.91666 -0.75,-1.66666 -1.6667,-1.66666 -0.9167,0 -1.6667,0.75 -1.6667,1.66666 0,0.91667 0.75,1.66667 1.6667,1.66667 0.9167,0 1.6667,-0.75 1.6667,-1.66667 z m -1.6667,-5 c 0,-0.91666 -0.75,-1.66666 -1.6667,-1.66666 -0.9166,0 -1.6666,0.75 -1.6666,1.66666 0,0.91667 0.75,1.66667 1.6666,1.66667 0.9167,0 1.6667,-0.75 1.6667,-1.66667 z m -5,-11.66666 c 0,-0.91667 -0.75,-1.66667 -1.6667,-1.66667 -0.9166,0 -1.66664,0.75 -1.66664,1.66667 0,0.91666 0.75004,1.66666 1.66664,1.66666 0.9167,0 1.6667,-0.75 1.6667,-1.66666 z m -1.6667,-5 c 0,-0.91667 -0.75,-1.66667 -1.66664,-1.66667 -0.91666,0 -1.66666,0.75 -1.66666,1.66667 0,0.91666 0.75,1.66666 1.66666,1.66666 0.91664,0 1.66664,-0.75 1.66664,-1.66666 z m -3.3333,-5.9317 c 0,-1.4291 -0.76224,-2.12727 -1.69386,-1.5515 -0.93162,0.57576 -1.26235,1.74503 -0.73497,2.59836 1.42873,2.31174 2.42883,1.88069 2.42883,-1.04686 z M 996.30723,504 c 0,-0.91667 -0.75,-1.66667 -1.66667,-1.66667 -0.91666,0 -1.66666,0.75 -1.66666,1.66667 0,0.91667 0.75,1.66667 1.66666,1.66667 0.91667,0 1.66667,-0.75 1.66667,-1.66667 z m -1.66667,-4.06831 c 0,-0.40423 -0.75,-1.19849 -1.66666,-1.76502 -0.91667,-0.56654 -1.66667,-0.2358 -1.66667,0.73497 0,0.97076 0.75,1.76503 1.66667,1.76503 0.91666,0 1.66666,-0.33074 1.66666,-0.73498 z m -3.99305,-8.81364 c -1.6942,-1.69419 -3.09208,0.85649 -1.70203,3.10564 1.05006,1.69903 1.44263,1.70034 2.00717,0.007 0.38599,-1.15798 0.24868,-2.55854 -0.30514,-3.11236 l 0,5e-5 z m -1.00695,-3.78472 c 0,-0.91666 -0.75,-1.66666 -1.66666,-1.66666 -0.91667,0 -1.66667,0.75 -1.66667,1.66666 0,0.91667 0.75,1.66667 1.66667,1.66667 0.91666,0 1.66666,-0.75 1.66666,-1.66667 z"
       id="path7412"
       inkscape:connector-curvature="0" />
    <path
       style="fill:#ececec;fill-opacity:1;fill-rule:nonzero;stroke:#e6e6e6;stroke-width:1.66666663;stroke-miterlimit:4;stroke-opacity:1;stroke-dasharray:3.33333334, 6.66666667;stroke-dashoffset:0"
       d="m 978.21038,331.91667 c -1.63811,-3.89584 -6.20712,-15.33334 -10.15335,-25.41667 -3.94623,-10.08333 -7.83566,-19.64583 -8.64317,-21.25 -0.91629,-1.82025 -0.83638,-2.91667 0.21258,-2.91667 0.92443,0 1.68079,-0.83023 1.68079,-1.84498 0,-1.01473 -0.97609,-1.47042 -2.16909,-1.01262 -1.52842,0.5865 -19.00998,-40.0962 -59.18685,-137.73835 C 868.59152,65.523486 842.94261,2.6041664 842.95371,1.9166664 c 0.0111,-0.6875 26.35043,-1.25000005 58.53183,-1.25000005 53.35634,0 58.41997,0.238926 57.47105,2.71175905 -0.57233,1.4914675 0.0243,3.5539675 1.32588,4.5833333 C 961.97429,9.2997664 1081.1392,295.74387 1096.4391,335.25 l 1.4523,3.75 -58.3513,0 -58.35133,0 -2.97839,-7.08333 0,0 z m -16.90315,-56.25 c 0,-0.91667 -0.75,-1.66667 -1.66667,-1.66667 -0.91666,0 -1.66666,0.75 -1.66666,1.66667 0,0.91666 0.75,1.66666 1.66666,1.66666 0.91667,0 1.66667,-0.75 1.66667,-1.66666 z m 0,-6.66667 c 0,-0.91667 -0.75,-1.66667 -1.66667,-1.66667 -0.91666,0 -1.66666,0.75 -1.66666,1.66667 0,0.91667 0.75,1.66667 1.66666,1.66667 0.91667,0 1.66667,-0.75 1.66667,-1.66667 z m 0,-6.66667 c 0,-0.91666 -0.75,-1.66666 -1.66667,-1.66666 -0.91666,0 -1.66666,0.75 -1.66666,1.66666 0,0.91667 0.75,1.66667 1.66666,1.66667 0.91667,0 1.66667,-0.75 1.66667,-1.66667 z m 0,-5 c 0,-0.91666 -0.75,-1.66666 -1.66667,-1.66666 -0.91666,0 -1.66666,0.75 -1.66666,1.66666 0,0.91667 0.75,1.66667 1.66666,1.66667 0.91667,0 1.66667,-0.75 1.66667,-1.66667 z m 0,-6.66666 c 0,-0.91667 -0.75,-1.66667 -1.66667,-1.66667 -0.91666,0 -1.66666,0.75 -1.66666,1.66667 0,0.91666 0.75,1.66666 1.66666,1.66666 0.91667,0 1.66667,-0.75 1.66667,-1.66666 z m 0,-5 c 0,-0.91667 -0.75,-1.66667 -1.66667,-1.66667 -0.91666,0 -1.66666,0.75 -1.66666,1.66667 0,0.91666 0.75,1.66666 1.66666,1.66666 0.91667,0 1.66667,-0.75 1.66667,-1.66666 z m 0,-6.66667 c 0,-0.91667 -0.75,-1.66667 -1.66667,-1.66667 -0.91666,0 -1.66666,0.75 -1.66666,1.66667 0,0.91667 0.75,1.66667 1.66666,1.66667 0.91667,0 1.66667,-0.75 1.66667,-1.66667 z m 0,-6.66667 c 0,-0.91666 -0.75,-1.66666 -1.66667,-1.66666 -0.91666,0 -1.66666,0.75 -1.66666,1.66666 0,0.91667 0.75,1.66667 1.66666,1.66667 0.91667,0 1.66667,-0.75 1.66667,-1.66667 z m 0,-5 c 0,-0.91666 -0.75,-1.66666 -1.66667,-1.66666 -0.91666,0 -1.66666,0.75 -1.66666,1.66666 0,0.91667 0.75,1.66667 1.66666,1.66667 0.91667,0 1.66667,-0.75 1.66667,-1.66667 z m 0,-6.66666 c 0,-0.91667 -0.75,-1.66667 -1.66667,-1.66667 -0.91666,0 -1.66666,0.75 -1.66666,1.66667 0,0.91666 0.75,1.66666 1.66666,1.66666 0.91667,0 1.66667,-0.75 1.66667,-1.66666 z m 0,-5 c 0,-0.91667 -0.75,-1.66667 -1.66667,-1.66667 -0.91666,0 -1.66666,0.75 -1.66666,1.66667 0,0.91666 0.75,1.66666 1.66666,1.66666 0.91667,0 1.66667,-0.75 1.66667,-1.66666 z m 0,-6.66667 c 0,-0.91667 -0.75,-1.66667 -1.66667,-1.66667 -0.91666,0 -1.66666,0.75 -1.66666,1.66667 0,0.91667 0.75,1.66667 1.66666,1.66667 0.91667,0 1.66667,-0.75 1.66667,-1.66667 z m 0,-6.66667 c 0,-0.91666 -0.75,-1.66666 -1.66667,-1.66666 -0.91666,0 -1.66666,0.75 -1.66666,1.66666 0,0.91667 0.75,1.66667 1.66666,1.66667 0.91667,0 1.66667,-0.75 1.66667,-1.66667 z m 0,-5 c 0,-0.91666 -0.75,-1.66666 -1.66667,-1.66666 -0.91666,0 -1.66666,0.75 -1.66666,1.66666 0,0.91667 0.75,1.66667 1.66666,1.66667 0.91667,0 1.66667,-0.75 1.66667,-1.66667 z m 0,-6.66666 c 0,-0.91667 -0.75,-1.66667 -1.66667,-1.66667 -0.91666,0 -1.66666,0.75 -1.66666,1.66667 0,0.91666 0.75,1.66666 1.66666,1.66666 0.91667,0 1.66667,-0.75 1.66667,-1.66666 z m 0,-5 c 0,-0.91667 -0.75,-1.66667 -1.66667,-1.66667 -0.91666,0 -1.66666,0.75 -1.66666,1.66667 0,0.91666 0.75,1.66666 1.66666,1.66666 0.91667,0 1.66667,-0.75 1.66667,-1.66666 z m 0,-6.66667 c 0,-0.91667 -0.75,-1.66667 -1.66667,-1.66667 -0.91666,0 -1.66666,0.75 -1.66666,1.66667 0,0.91667 0.75,1.66667 1.66666,1.66667 0.91667,0 1.66667,-0.75 1.66667,-1.66667 z m 0,-6.66667 c 0,-0.91666 -0.75,-1.66666 -1.66667,-1.66666 -0.91666,0 -1.66666,0.75 -1.66666,1.66666 0,0.91667 0.75,1.66667 1.66666,1.66667 0.91667,0 1.66667,-0.75 1.66667,-1.66667 z m 0,-5 c 0,-0.91666 -0.75,-1.66666 -1.66667,-1.66666 -0.91666,0 -1.66666,0.75 -1.66666,1.66666 0,0.91667 0.75,1.66667 1.66666,1.66667 0.91667,0 1.66667,-0.75 1.66667,-1.66667 z m 0,-6.66666 c 0,-0.91667 -0.75,-1.66667 -1.66667,-1.66667 -0.91666,0 -1.66666,0.75 -1.66666,1.66667 0,0.91666 0.75,1.66666 1.66666,1.66666 0.91667,0 1.66667,-0.75 1.66667,-1.66666 z m 0,-5 c 0,-0.91667 -0.75,-1.66667 -1.66667,-1.66667 -0.91666,0 -1.66666,0.75 -1.66666,1.66667 0,0.91666 0.75,1.66666 1.66666,1.66666 0.91667,0 1.66667,-0.75 1.66667,-1.66666 z m 0,-6.66667 c 0,-0.91667 -0.75,-1.66667 -1.66667,-1.66667 -0.91666,0 -1.66666,0.75 -1.66666,1.66667 0,0.91667 0.75,1.66667 1.66666,1.66667 0.91667,0 1.66667,-0.75 1.66667,-1.66667 z m 0,-6.66667 c 0,-0.91666 -0.75,-1.66666 -1.66667,-1.66666 -0.91666,0 -1.66666,0.75 -1.66666,1.66666 0,0.91667 0.75,1.66667 1.66666,1.66667 0.91667,0 1.66667,-0.75 1.66667,-1.66667 z m 0,-5 c 0,-0.91666 -0.75,-1.66666 -1.66667,-1.66666 -0.91666,0 -1.66666,0.75 -1.66666,1.66666 0,0.91667 0.75,1.66667 1.66666,1.66667 0.91667,0 1.66667,-0.75 1.66667,-1.66667 z m 0,-6.66666 c 0,-0.91667 -0.75,-1.66667 -1.66667,-1.66667 -0.91666,0 -1.66666,0.75 -1.66666,1.66667 0,0.91666 0.75,1.66666 1.66666,1.66666 0.91667,0 1.66667,-0.75 1.66667,-1.66666 z m 0,-5 c 0,-0.91667 -0.75,-1.66667 -1.66667,-1.66667 -0.91666,0 -1.66666,0.75 -1.66666,1.66667 0,0.91666 0.75,1.66666 1.66666,1.66666 0.91667,0 1.66667,-0.75 1.66667,-1.66666 z m 0,-6.66667 c 0,-0.91667 -0.75,-1.66667 -1.66667,-1.66667 -0.91666,0 -1.66666,0.75 -1.66666,1.66667 0,0.91667 0.75,1.66667 1.66666,1.66667 0.91667,0 1.66667,-0.75 1.66667,-1.66667 z m 0,-6.66667 c 0,-0.91666 -0.75,-1.66666 -1.66667,-1.66666 -0.91666,0 -1.66666,0.75 -1.66666,1.66666 0,0.91667 0.75,1.66667 1.66666,1.66667 0.91667,0 1.66667,-0.75 1.66667,-1.66667 z m 0,-5 c 0,-0.91666 -0.75,-1.66666 -1.66667,-1.66666 -0.91666,0 -1.66666,0.75 -1.66666,1.66666 0,0.91667 0.75,1.66667 1.66666,1.66667 0.91667,0 1.66667,-0.75 1.66667,-1.66667 z m 0,-6.66666 c 0,-0.91667 -0.75,-1.66667 -1.66667,-1.66667 -0.91666,0 -1.66666,0.75 -1.66666,1.66667 0,0.91666 0.75,1.66666 1.66666,1.66666 0.91667,0 1.66667,-0.75 1.66667,-1.66666 z m 0,-5.000004 C 961.30723,94.75 960.55723,94 959.64056,94 c -0.91666,0 -1.66666,0.75 -1.66666,1.666666 0,0.916667 0.75,1.666667 1.66666,1.666667 0.91667,0 1.66667,-0.75 1.66667,-1.666667 z m 0,-6.666666 c 0,-0.916667 -0.75,-1.666667 -1.66667,-1.666667 -0.91666,0 -1.66666,0.75 -1.66666,1.666667 0,0.916666 0.75,1.666666 1.66666,1.666666 0.91667,0 1.66667,-0.75 1.66667,-1.666666 z m 0,-6.666667 c 0,-0.916667 -0.75,-1.666667 -1.66667,-1.666667 -0.91666,0 -1.66666,0.75 -1.66666,1.666667 0,0.916667 0.75,1.666667 1.66666,1.666667 0.91667,0 1.66667,-0.75 1.66667,-1.666667 z m 0,-5 c 0,-0.916667 -0.75,-1.666667 -1.66667,-1.666667 -0.91666,0 -1.66666,0.75 -1.66666,1.666667 0,0.916667 0.75,1.666667 1.66666,1.666667 0.91667,0 1.66667,-0.75 1.66667,-1.666667 z m 0,-6.666667 C 961.30723,69.75 960.55723,69 959.64056,69 c -0.91666,0 -1.66666,0.75 -1.66666,1.666666 0,0.916667 0.75,1.666667 1.66666,1.666667 0.91667,0 1.66667,-0.75 1.66667,-1.666667 z m 0,-5 C 961.30723,64.75 960.55723,64 959.64056,64 c -0.91666,0 -1.66666,0.75 -1.66666,1.666666 0,0.916667 0.75,1.666667 1.66666,1.666667 0.91667,0 1.66667,-0.75 1.66667,-1.666667 z m 0,-6.666666 c 0,-0.916667 -0.75,-1.666667 -1.66667,-1.666667 -0.91666,0 -1.66666,0.75 -1.66666,1.666667 0,0.916666 0.75,1.666666 1.66666,1.666666 0.91667,0 1.66667,-0.75 1.66667,-1.666666 z m 0,-6.666667 c 0,-0.916667 -0.75,-1.666667 -1.66667,-1.666667 -0.91666,0 -1.66666,0.75 -1.66666,1.666667 0,0.916667 0.75,1.666667 1.66666,1.666667 0.91667,0 1.66667,-0.75 1.66667,-1.666667 z m 0,-5 c 0,-0.916667 -0.75,-1.666667 -1.66667,-1.666667 -0.91666,0 -1.66666,0.75 -1.66666,1.666667 0,0.916667 0.75,1.666667 1.66666,1.666667 0.91667,0 1.66667,-0.75 1.66667,-1.666667 z m 0,-6.666667 C 961.30723,39.75 960.55723,39 959.64056,39 c -0.91666,0 -1.66666,0.75 -1.66666,1.666666 0,0.916667 0.75,1.666667 1.66666,1.666667 0.91667,0 1.66667,-0.75 1.66667,-1.666667 z m 0,-5 C 961.30723,34.75 960.55723,34 959.64056,34 c -0.91666,0 -1.66666,0.75 -1.66666,1.666666 0,0.916667 0.75,1.666667 1.66666,1.666667 0.91667,0 1.66667,-0.75 1.66667,-1.666667 z m 0,-6.666666 c 0,-0.916667 -0.75,-1.666667 -1.66667,-1.666667 -0.91666,0 -1.66666,0.75 -1.66666,1.666667 0,0.916666 0.75,1.666666 1.66666,1.666666 0.91667,0 1.66667,-0.75 1.66667,-1.666666 z m 0,-6.666667 c 0,-0.916667 -0.75,-1.666667 -1.66667,-1.666667 -0.91666,0 -1.66666,0.75 -1.66666,1.666667 0,0.916667 0.75,1.666667 1.66666,1.666667 0.91667,0 1.66667,-0.75 1.66667,-1.666667 z m 0,-5 c 0,-0.916667 -0.75,-1.666667 -1.66667,-1.666667 -0.91666,0 -1.66666,0.75 -1.66666,1.666667 0,0.916667 0.75,1.666667 1.66666,1.666667 0.91667,0 1.66667,-0.75 1.66667,-1.666667 z m 0,-6.666667 c 0,-0.9166663 -0.75,-1.6666663 -1.66667,-1.6666663 -0.91666,0 -1.66666,0.75 -1.66666,1.6666663 0,0.916667 0.75,1.666667 1.66666,1.666667 0.91667,0 1.66667,-0.75 1.66667,-1.666667 z"
       id="path7414"
       inkscape:connector-curvature="0" />
    <path
       style="fill:#f2f2f2;fill-opacity:1;fill-rule:nonzero;stroke:#e6e6e6;stroke-width:1.66666663;stroke-miterlimit:4;stroke-opacity:1;stroke-dasharray:3.33333334, 6.66666667;stroke-dashoffset:0"
       d="m 981.0989,337.85602 c -0.11459,-0.28749 -0.36493,-1.08519 -0.55633,-1.77269 -0.44047,-1.58218 -3.001,-7.69816 -6.80326,-16.25 -3.46492,-7.79308 -3.16155,-6.97008 -4.91495,-13.33333 -0.75777,-2.75 -2.57162,-6.84202 -4.03078,-9.09337 -1.45916,-2.25135 -2.41279,-4.12635 -2.11919,-4.16666 0.29361,-0.0403 -0.1675,-1.9483 -1.02469,-4.23997 -1.70212,-4.55058 -1.65713,-9.85782 0.10779,-12.7135 1.45705,-2.35757 -0.17066,-3.95585 -2.94462,-2.89138 -2.13162,0.81798 -4.64198,-1.79047 -5.1911,-5.39395 -0.15355,-1.00769 -2.61215,-6.87252 -5.46354,-13.03295 -2.85138,-6.16044 -5.18433,-11.92485 -5.18433,-12.8098 0,-0.88497 -1.03262,-3.27014 -2.2947,-5.30039 -1.26209,-2.03025 -7.39227,-16.44136 -13.62263,-32.0247 -6.23036,-15.58333 -11.7917,-28.70833 -12.35853,-29.16666 -0.56683,-0.45834 -2.05669,-4.02084 -3.3108,-7.91667 -1.25412,-3.89583 -2.95443,-7.08333 -3.77847,-7.08333 -0.82405,0 -1.04783,-0.72882 -0.4973,-1.61959 0.55053,-0.89078 -0.34271,-3.6703 -1.98497,-6.17671 -1.64227,-2.50641 -2.78987,-4.78117 -2.55023,-5.05503 0.23964,-0.27386 -0.75857,-3.30684 -2.21825,-6.73996 -1.45967,-3.43313 -3.7788,-9.24205 -5.15362,-12.90871 -1.37481,-3.66667 -3.59554,-8.7106 -4.93494,-11.20874 -1.3394,-2.49814 -2.39527,-4.93922 -2.34637,-5.42462 0.0489,-0.48541 -1.04468,-3.59557 -2.43015,-6.91147 -1.38548,-3.31591 -2.51904,-6.38648 -2.51904,-6.823499 0,-0.943623 -4.63296,-11.737916 -6.80678,-15.85906 -0.83961,-1.591728 -1.52656,-4.029228 -1.52656,-5.416666 0,-1.387439 -0.56739,-2.522615 -1.26087,-2.522615 -0.69347,0 -2.23775,-3.130064 -3.43173,-6.955699 -1.19397,-3.825633 -3.37129,-9.638133 -4.83847,-12.916666 -1.46719,-3.278532 -2.80018,-6.335969 -2.96221,-6.794302 C 861.08559,44.330176 859.12442,39.34164 857.88829,36.5 854.68067,29.126225 844.64095,3.2918872 844.64652,2.4261237 c 0.006,-0.8648838 54.87924,-1.0949278 95.41071,-0.3999853 17.80059,0.3052043 17.91667,0.333553 17.91667,4.3754996 0,2.2375679 0.78641,4.554339 1.74759,5.14838 1.03189,0.637739 1.15265,1.872518 0.29487,3.015028 -2.25277,3.000557 -2.14989,9.753647 0.13638,8.95243 1.0933,-0.383141 1.75016,-2.006578 1.45968,-3.607636 -1.02994,-5.676889 2.7326,-0.80074 5.65671,7.330946 1.63243,4.539627 3.58381,7.873309 4.33641,7.408179 0.7526,-0.465129 1.36836,1.073575 1.36836,3.41934 0,2.345765 0.75,4.265028 1.66666,4.265028 0.91667,0 1.51808,0.5625 1.33646,1.25 -0.45386,1.718073 1.71256,8.288547 5.35796,16.25 4.84271,10.576363 8.76168,19.851597 9.18586,21.740643 0.21497,0.957354 1.97985,5.228705 3.92195,9.491894 1.94211,4.263186 3.53111,8.245978 3.53111,8.850645 0,0.604665 1.8126,4.708205 4.028,9.118985 2.2154,4.41077 3.5904,8.45719 3.0556,8.99204 -0.5349,0.53485 -0.1571,0.97246 0.8395,0.97246 0.9966,0 2.3062,2.25 2.9102,5 0.604,2.75 1.6636,5 2.3547,5 0.691,0 1.2564,1.09562 1.2564,2.43471 0,3.46764 9.1684,24.82398 11.2863,26.28977 0.9731,0.67346 1.2129,1.23596 0.5328,1.25 -1.6436,0.0339 3.8427,13.85014 6.1217,15.41667 0.9798,0.67347 1.1997,1.23597 0.4887,1.25 -0.7111,0.0133 0,2.46302 1.5743,5.44218 1.577,2.97917 3.1002,6.78584 3.3849,8.45929 0.2848,1.67343 1.4247,4.67343 2.5333,6.66666 1.1085,1.99322 2.0789,3.99905 2.1565,4.45739 0.5169,3.05536 3.1777,9.53148 4.6914,11.41813 0.9934,1.23832 1.972,3.38087 2.1746,4.76125 0.5426,3.69703 7.5441,20.95957 9.5605,23.57208 0.9558,1.23832 1.8805,3.11332 2.0549,4.16667 0.7513,4.53793 7.956,22.1415 10.0479,24.55045 1.2586,1.44938 1.746,3.17767 1.083,3.84062 -0.6629,0.66296 -0.4709,1.7271 0.4268,2.36475 0.8976,0.63766 3.0469,5.28438 4.7762,10.32605 1.7293,5.04166 4.1919,10.3853 5.4725,11.87473 1.2806,1.48943 2.178,3.36443 1.9942,4.16667 -0.3538,1.54456 0.7589,4.82305 4.5402,13.37715 1.2769,2.88853 2.3216,5.9842 2.3216,6.87925 0,0.89506 1.1167,2.5542 2.4816,3.68696 1.3649,1.13279 2.0503,2.75747 1.5232,3.61042 -0.5272,0.85297 -0.037,2.6611 1.0892,4.0181 1.1262,1.357 1.5032,3.01165 0.8379,3.677 -1.1368,1.13677 -114.02547,2.02338 -114.4736,0.89907 l 0,0 z m -19.02951,-68.74085 c 0.52738,-0.85334 0.27523,-1.97402 -0.56033,-2.49044 -0.83557,-0.5164 -1.94926,0.18177 -2.47488,1.5515 -1.03617,2.70022 1.46793,3.47484 3.03521,0.93894 z m -0.0214,-9.82195 c 0,-5.4077 -3.11265,-5.2033 -3.53041,0.23183 -0.22726,2.9568 0.3588,4.4519 1.5849,4.0432 1.07003,-0.35667 1.94551,-2.28043 1.94551,-4.27503 l 0,0 z m 0.0978,-12.30599 c -0.1548,-2.10131 -0.9693,-3.44556 -1.81,-2.98723 -1.59056,0.86715 -2.2175,4.8972 -1.10616,7.11052 1.22956,2.44876 3.19555,-0.33102 2.91616,-4.12329 z m -0.0764,-7.87206 c 0.52738,-0.85334 0.27523,-1.97402 -0.56033,-2.49044 -0.83557,-0.5164 -1.94926,0.18177 -2.47488,1.5515 -1.03617,2.70022 1.46793,3.47484 3.03521,0.93894 z m -0.0214,-9.82195 c 0,-5.4077 -3.11265,-5.2033 -3.53041,0.23183 -0.22726,2.9568 0.3588,4.4519 1.5849,4.0432 1.07003,-0.35667 1.94551,-2.28043 1.94551,-4.27503 l 0,0 z m 0.0978,-12.30599 c -0.1548,-2.10131 -0.9693,-3.44556 -1.81,-2.98723 -1.59056,0.86715 -2.2175,4.8972 -1.10616,7.11052 1.22956,2.44876 3.19555,-0.33102 2.91616,-4.12329 z m -0.0764,-7.87206 c 0.52738,-0.85334 0.27523,-1.97402 -0.56033,-2.49044 -0.83557,-0.5164 -1.94926,0.18177 -2.47488,1.5515 -1.03617,2.70022 1.46793,3.47484 3.03521,0.93894 z m -0.0214,-9.82195 c 0,-5.4077 -3.11265,-5.2033 -3.53041,0.23183 -0.22726,2.9568 0.3588,4.4519 1.5849,4.0432 1.07003,-0.35667 1.94551,-2.28043 1.94551,-4.27503 l 0,0 z m 0.0978,-12.30599 c -0.1548,-2.10131 -0.9693,-3.44556 -1.81,-2.98723 -1.59056,0.86715 -2.2175,4.8972 -1.10616,7.11052 1.22956,2.44876 3.19555,-0.33102 2.91616,-4.12329 l 0,0 z m -0.0764,-7.87206 c 0.52738,-0.85334 0.27523,-1.97402 -0.56033,-2.49044 -0.83557,-0.5164 -1.94926,0.18177 -2.47488,1.5515 -1.03617,2.70022 1.46793,3.47484 3.03521,0.93894 z m -0.0214,-9.82195 c 0,-5.4077 -3.11265,-5.2033 -3.53041,0.23183 -0.22726,2.9568 0.3588,4.4519 1.5849,4.0432 1.07003,-0.35667 1.94551,-2.28043 1.94551,-4.27503 l 0,0 z m 0.0978,-12.30599 c -0.1548,-2.10131 -0.9693,-3.44556 -1.80999,-2.98723 -1.59056,0.86715 -2.21751,4.8972 -1.10617,7.11052 1.22957,2.44877 3.19556,-0.33102 2.91617,-4.12329 l -10e-6,0 z m -0.0764,-7.87207 c 0.52738,-0.85332 0.27523,-1.97402 -0.56033,-2.49042 -0.83557,-0.51641 -1.94926,0.18176 -2.47488,1.5515 -1.03617,2.7002 1.46793,3.47483 3.03521,0.93892 z m -0.0214,-9.82195 c 0,-5.40769 -3.11265,-5.20329 -3.53041,0.23184 -0.22726,2.9568 0.3588,4.45191 1.5849,4.04321 1.07003,-0.35668 1.94551,-2.28045 1.94551,-4.27505 l 0,0 z m 0.0978,-12.30598 c -0.1548,-2.10131 -0.9693,-3.44556 -1.80999,-2.98723 -1.59056,0.86715 -2.21751,4.8972 -1.10617,7.11052 1.22957,2.44877 3.19556,-0.33102 2.91617,-4.12329 l -10e-6,0 z m -0.0764,-7.87207 c 0.52738,-0.85332 0.27523,-1.97402 -0.56033,-2.49042 -0.83557,-0.51641 -1.94926,0.18176 -2.47488,1.5515 -1.03617,2.7002 1.46793,3.47483 3.03521,0.93892 l 0,0 z m -0.0214,-9.82195 c 0,-5.40769 -3.11265,-5.20329 -3.53041,0.23184 -0.22726,2.9568 0.3588,4.45191 1.5849,4.04321 1.07003,-0.35668 1.94551,-2.28045 1.94551,-4.27505 l 0,0 z m 0.0978,-12.305977 C 961.99099,94.885921 961.17649,93.541666 960.3358,94 c -1.59056,0.867151 -2.21751,4.897201 -1.10617,7.11052 1.22957,2.44877 3.19556,-0.33102 2.91617,-4.123287 l -10e-6,0 z m -0.0764,-7.87207 c 0.52738,-0.853327 0.27523,-1.974018 -0.56033,-2.490427 -0.83557,-0.516408 -1.94926,0.181769 -2.47488,1.551504 -1.03617,2.700201 1.46793,3.47483 3.03521,0.938923 z m -0.0214,-9.821953 c 0,-5.407692 -3.11265,-5.203289 -3.53041,0.231836 -0.22726,2.956807 0.3588,4.45191 1.5849,4.04321 1.07003,-0.356676 1.94551,-2.280448 1.94551,-4.275046 l 0,0 z m 0.0978,-12.305977 C 961.99099,64.885921 961.17649,63.541666 960.3358,64 c -1.59056,0.867151 -2.21751,4.897201 -1.10617,7.11052 1.22957,2.448768 3.19556,-0.33102 2.91617,-4.123287 l -10e-6,0 z m -0.0764,-7.87207 c 0.52738,-0.853327 0.27523,-1.974018 -0.56033,-2.490427 -0.83557,-0.516408 -1.94926,0.181769 -2.47488,1.551504 -1.03617,2.700201 1.46793,3.47483 3.03521,0.938923 z m -0.0214,-9.821953 c 0,-5.407692 -3.11265,-5.203289 -3.53041,0.231836 -0.22726,2.956807 0.3588,4.45191 1.5849,4.04321 1.07003,-0.356676 1.94551,-2.280448 1.94551,-4.275046 l 0,0 z m 0.0978,-12.305977 C 961.99099,34.885921 961.17649,33.541666 960.3358,34 c -1.59056,0.867151 -2.21751,4.897201 -1.10617,7.11052 1.22957,2.448768 3.19556,-0.33102 2.91617,-4.123287 l -10e-6,0 z m -0.0764,-7.87207 c 0.52738,-0.853327 0.27523,-1.974018 -0.56033,-2.490427 -0.83557,-0.516408 -1.94926,0.181769 -2.47488,1.551504 -1.03617,2.700201 1.46793,3.47483 3.03521,0.938923 z"
       id="path7416"
       inkscape:connector-curvature="0" />
    <path
       style="fill:none;stroke:#e6e6e6;stroke-width:1.66666663;stroke-miterlimit:4;stroke-opacity:1;stroke-dasharray:3.33333334, 6.66666667;stroke-dashoffset:0"
       d="m 982.2542,757.46103 c -0.30758,-0.52856 -0.38976,-62.99166 -0.18261,-138.8069 0.28605,-104.69246 0.86016,-138.42847 2.38706,-140.26828 1.34445,-1.61996 1.43997,-2.775 0.28835,-3.48674 -0.94715,-0.58537 -1.7228,-2.71464 -1.72366,-4.73171 -8.6e-4,-2.01707 -0.28881,-31.6049 -0.63989,-65.75073 -0.46212,-44.94527 -0.12366,-62.15621 1.22606,-62.34733 1.02541,-0.14519 27.03639,-0.38041 57.80229,-0.52271 l 55.9379,-0.25872 -0.1046,201.27271 c -0.082,158.68321 -0.5454,201.71355 -2.1879,203.35605 -2.7574,2.75741 -2.6558,4.86508 0.182,3.77611 1.6061,-0.61633 2.2123,0.52055 2.0833,3.90734 l -0.1819,4.7766 -57.1636,0.0227 c -31.44,0.0117 -57.41522,-0.4098 -57.7228,-0.93836 l 0,10e-6 z M 1094.7656,741.875 c -0.2062,-1.99283 -2.4922,-1.6069 -3.2084,0.54167 -0.3666,1.1 0.2334,1.7 1.3334,1.33333 1.1,-0.36667 1.9437,-1.21042 1.875,-1.875 z m -2.625,-4.54167 c 0.5665,-0.91666 0.2358,-1.66666 -0.735,-1.66666 -0.9708,0 -1.765,0.75 -1.765,1.66666 0,0.91667 0.3307,1.66667 0.7349,1.66667 0.4043,0 1.1985,-0.75 1.7651,-1.66667 z m -2.375,-5.45833 c -0.2062,-1.99283 -2.4922,-1.6069 -3.2084,0.54167 -0.3666,1.1 0.2334,1.7 1.3334,1.33333 1.1,-0.36667 1.9437,-1.21042 1.875,-1.875 z m -1.7917,-6.20833 c 0,-0.91667 -0.75,-1.66667 -1.6667,-1.66667 -0.9166,0 -1.6666,0.75 -1.6666,1.66667 0,0.91666 0.75,1.66666 1.6666,1.66666 0.9167,0 1.6667,-0.75 1.6667,-1.66666 z m -4.875,-10.45834 c -0.2062,-1.99283 -2.4922,-1.6069 -3.2083,0.54167 -0.3667,1.1 0.2333,1.7 1.3333,1.33333 1.1,-0.36666 1.9437,-1.21041 1.875,-1.875 z M 1081.3072,709 c 0,-0.91667 -0.75,-1.66667 -1.6666,-1.66667 -0.9167,0 -1.6667,0.75 -1.6667,1.66667 0,0.91667 0.75,1.66667 1.6667,1.66667 0.9166,0 1.6666,-0.75 1.6666,-1.66667 z m -2.5633,-4.89757 c 0.5317,-0.86033 -0.3615,-2.33751 -1.985,-3.28265 -1.7996,-1.0477 -2.1001,-1.7382 -0.77,-1.7691 1.2,-0.0278 1.6778,-0.86603 1.0619,-1.86256 -1.7984,-2.90997 -4.0601,0.68291 -2.9946,4.7573 1.0173,3.89023 3.041,4.82141 4.6877,2.15701 l 0,0 z m -4.9367,-11.7691 c 0.5666,-0.91666 0.2358,-1.66666 -0.7349,-1.66666 -0.9708,0 -1.7651,0.75 -1.7651,1.66666 0,0.91667 0.3308,1.66667 0.735,1.66667 0.4042,0 1.1985,-0.75 1.765,-1.66667 z m -1.9589,-4.42998 c 0.6032,-0.60317 0.417,-1.91567 -0.4138,-2.91667 -0.8308,-1.00101 -1.5743,-2.38251 -1.6522,-3.07001 -0.078,-0.6875 -0.7042,-1.25 -1.3917,-1.25 -0.6875,0 -1.175,0.75 -1.0834,1.66666 l 0.4167,4.16667 c 0.2609,2.60908 2.2439,3.28383 4.1244,1.40335 z m -6.4456,-17.12152 c 0.5274,-0.85333 0.1844,-2.03015 -0.7621,-2.61516 -0.9466,-0.58502 -1.3216,-1.71002 -0.8334,-2.5 0.4883,-0.78999 0.1773,-1.8754 -0.691,-2.41202 -0.8682,-0.53663 -2.0177,-0.26528 -2.5543,0.603 -0.5367,0.86828 -0.2462,2.02953 0.6454,2.58057 0.8915,0.55101 1.1985,2.10285 0.6822,3.4485 -1.0216,2.66203 1.9528,3.41986 3.5132,0.89511 l 0,0 z m -5.221,-11.21181 c 0.6031,-0.60317 0.4169,-1.91567 -0.4139,-2.91667 -0.8307,-1.00102 -1.5742,-2.38252 -1.6522,-3.07002 -0.078,-0.6875 -0.7042,-1.25 -1.3917,-1.25 -0.6875,0 -1.175,0.75 -1.0833,1.66667 l 0.4166,4.16667 c 0.2609,2.60908 2.244,3.28383 4.1245,1.40335 z m -3.7495,-11.02835 c -0.2061,-1.99284 -2.4921,-1.6069 -3.2083,0.54166 -0.3667,1.1 0.2333,1.7 1.3333,1.33334 1.1,-0.36667 1.9438,-1.21042 1.875,-1.875 z m -3.3333,-6.66667 c -0.2062,-1.99283 -2.4922,-1.6069 -3.2083,0.54167 -0.3667,1.1 0.2333,1.7 1.3333,1.33333 1.1,-0.36667 1.9437,-1.21042 1.875,-1.875 z m -1.6667,-5 c -0.2061,-1.99283 -2.4921,-1.6069 -3.2083,0.54167 -0.3667,1.1 0.2333,1.7 1.3333,1.33333 1.1,-0.36667 1.9438,-1.21042 1.875,-1.875 z m -4.5839,-10.63832 c 0.6032,-0.60316 0.417,-1.91566 -0.4138,-2.91666 -0.8308,-1.00102 -1.5743,-2.38252 -1.6522,-3.07002 -0.2186,-1.92782 -2.4856,-1.71827 -3.1556,0.29167 -0.3285,0.98541 0.2955,1.79166 1.3866,1.79166 1.0912,0 1.5522,1.125 1.0246,2.5 -0.9716,2.53192 0.7982,3.41562 2.8104,1.40335 l 0,0 z m -5.2911,-11.40335 c 0,-0.87083 -0.8062,-1.85208 -1.7916,-2.18055 -0.9855,-0.32848 -1.7917,0.65277 -1.7917,2.18055 0,1.52779 0.8062,2.50904 1.7917,2.18055 0.9854,-0.32846 1.7916,-1.30971 1.7916,-2.18055 l 0,0 z m -1.3295,-5.43505 c 1.1799,-1.9091 -3.6916,-7.86311 -5.1533,-6.29843 -0.6969,0.74607 -0.3718,1.67728 0.7225,2.06933 1.0944,0.39207 1.5766,1.78939 1.0717,3.10517 -0.9397,2.44885 1.944,3.41372 3.3591,1.12393 l 0,0 z m -5.3371,-11.23161 c 0,-0.87084 -0.6813,-1.81042 -1.5139,-2.08797 -0.8327,-0.27755 -1.5139,0.66203 -1.5139,2.08797 0,1.42593 0.6812,2.36551 1.5139,2.08796 0.8326,-0.27755 1.5139,-1.21713 1.5139,-2.08796 z m -1.7917,-6.29167 c -0.2062,-1.99283 -2.4922,-1.6069 -3.2083,0.54167 -0.3667,1.1 0.2333,1.7 1.3333,1.33333 1.1,-0.36667 1.9437,-1.21042 1.875,-1.875 z m -4.875,-10.375 c 0,-0.87083 -0.8063,-1.85208 -1.7917,-2.18055 -0.9854,-0.32848 -1.7916,0.65277 -1.7916,2.18055 0,1.52778 0.8062,2.50903 1.7916,2.18055 0.9854,-0.32847 1.7917,-1.30972 1.7917,-2.18055 z m -1.9167,-5.83333 c 0,-0.91667 -0.75,-1.66667 -1.6666,-1.66667 -0.9167,0 -1.6667,0.75 -1.6667,1.66667 0,0.91666 0.75,1.66666 1.6667,1.66666 0.9166,0 1.6666,-0.75 1.6666,-1.66666 z m -4.875,-10.45834 c -0.2061,-1.99283 -2.4921,-1.6069 -3.2083,0.54167 -0.3667,1.1 0.2333,1.7 1.3333,1.33333 1.1,-0.36666 1.9438,-1.21041 1.875,-1.875 z M 1019.6406,559 c 0,-0.91667 -0.75,-1.66667 -1.6667,-1.66667 -0.9167,0 -1.6667,0.75 -1.6667,1.66667 0,0.91667 0.75,1.66667 1.6667,1.66667 0.9167,0 1.6667,-0.75 1.6667,-1.66667 z m -2.7923,-4.42998 c 0.6032,-0.60317 0.417,-1.91567 -0.4138,-2.91667 -0.8308,-1.00102 -1.5743,-2.38252 -1.6522,-3.07002 -0.078,-0.6875 -0.7042,-1.25 -1.3917,-1.25 -0.6875,0 -1.175,0.75 -1.0834,1.66667 l 0.4167,4.16667 c 0.2609,2.60908 2.2439,3.28383 4.1244,1.40335 l 0,0 z m -4.7077,-12.23669 c 0.5665,-0.91666 0.2358,-1.66666 -0.735,-1.66666 -0.9708,0 -1.765,0.75 -1.765,1.66666 0,0.91667 0.3307,1.66667 0.7349,1.66667 0.4043,0 1.1985,-0.75 1.7651,-1.66667 z m -2.375,-5.45833 c -0.2062,-1.99283 -2.4922,-1.6069 -3.2084,0.54167 -0.3666,1.1 0.2334,1.7 1.3334,1.33333 1.1,-0.36667 1.9437,-1.21042 1.875,-1.875 z m -1.6667,-5 c -0.2062,-1.99283 -2.4922,-1.6069 -3.2083,0.54167 -0.3667,1.1 0.2333,1.7 1.3333,1.33333 1.1,-0.36667 1.9437,-1.21042 1.875,-1.875 z m -4.3796,-13.01735 c -0.5367,-0.86828 -1.6861,-1.13963 -2.5544,-0.603 -0.8683,0.53662 -1.1397,1.68608 -0.603,2.55437 0.5366,0.86828 1.6861,1.13963 2.5543,0.603 0.8683,-0.53662 1.1397,-1.68609 0.6031,-2.55437 z m -2.2871,-3.64932 c -0.2061,-1.99283 -2.49212,-1.6069 -3.2083,0.54167 -0.36667,1.1 0.23333,1.7 1.33333,1.33333 1.09997,-0.36666 1.94377,-1.21041 1.87497,-1.875 z m -3.3333,-5 c -0.20616,-1.99283 -2.49215,-1.6069 -3.20834,0.54167 -0.36666,1.1 0.23334,1.7 1.33334,1.33333 1.1,-0.36666 1.94375,-1.21041 1.875,-1.875 z m -1.66667,-6.66666 c -0.20616,-1.99284 -2.49215,-1.6069 -3.20833,0.54166 -0.36667,1.1 0.23333,1.7 1.33333,1.33334 1.1,-0.36667 1.94375,-1.21042 1.875,-1.875 l 0,0 z M 993.80723,499 c 0.56653,-0.91667 0.23579,-1.66667 -0.73497,-1.66667 -0.97077,0 -1.76503,0.75 -1.76503,1.66667 0,0.91667 0.33074,1.66667 0.73497,1.66667 0.40424,0 1.1985,-0.75 1.76503,-1.66667 z m -2.89038,-8.37335 c -0.31654,-2.772 -1.2957,-4.8345 -2.17591,-4.58333 -0.88021,0.25117 -1.37521,1.58168 -1.1,2.95668 0.27521,1.375 0.58771,3.4375 0.69445,4.58333 0.10673,1.14584 0.86072,2.08334 1.67553,2.08334 0.81481,0 1.22248,-2.26801 0.90593,-5.04002 z"
       id="path7418"
       inkscape:connector-curvature="0" />
    <path
       style="fill:none;stroke:none"
       d="m 980.69821,333.69378 c -1.3735,-2.12325 -3.48097,-7.04795 -4.68326,-10.94378 -1.20229,-3.89583 -2.75337,-7.08333 -3.44685,-7.08333 -0.69348,0 -1.26087,-1.52639 -1.26087,-3.39197 0,-1.86558 -1.21126,-5.24058 -2.69168,-7.5 -1.48043,-2.25942 -2.21314,-4.10803 -1.62825,-4.10803 0.58489,0 -0.2076,-1.93985 -1.7611,-4.31079 -1.70902,-2.6083 -2.90293,-7.97321 -3.02304,-13.58421 -0.17015,-7.94919 -0.7243,-9.46794 -3.88055,-10.6355 -2.05162,-0.75895 -3.68205,-2.78294 -3.68205,-4.57082 0,-1.7648 -1.17253,-3.65867 -2.60563,-4.2086 -1.4331,-0.54993 -2.1577,-1.72467 -1.61021,-2.61052 0.54749,-0.88585 0.25636,-2.95365 -0.64696,-4.5951 -0.90331,-1.64146 -2.86677,-5.98446 -4.36324,-9.65113 -1.49647,-3.66667 -3.4078,-7.96898 -4.2474,-9.56072 -0.83961,-1.59173 -1.52656,-4.05276 -1.52656,-5.46898 0,-1.4162 -0.96687,-2.94593 -2.1486,-3.39942 -1.18173,-0.45346 -2.26916,-2.42495 -2.41651,-4.38105 -0.14735,-1.95611 -0.86798,-3.99906 -1.6014,-4.53986 -0.73342,-0.54082 -1.57545,-2.8583 -1.87117,-5.14997 -0.29573,-2.29167 -1.48656,-4.91667 -2.64629,-5.83333 -1.15973,-0.91667 -1.75207,-2.72627 -1.31631,-4.02134 0.43575,-1.29506 -0.24842,-3.17006 -1.52038,-4.16666 -1.27197,-0.9966 -2.56887,-3.312 -2.88201,-5.14534 -0.31314,-1.83333 -1.25064,-3.58333 -2.08333,-3.88888 -0.8327,-0.30557 -1.514,-2.3916 -1.514,-4.63565 0,-2.24405 -1.07764,-4.49362 -2.39476,-4.99903 -1.31712,-0.50544 -2.00023,-1.9471 -1.51802,-3.20374 0.48222,-1.25661 -0.31514,-3.98643 -1.7719,-6.06625 -1.45676,-2.0798 -2.64865,-5.11458 -2.64865,-6.74396 0,-1.62937 -0.75,-2.96249 -1.66667,-2.96249 -0.91666,0 -1.66666,-1.89854 -1.66666,-4.21897 0,-2.32044 -1.07765,-4.63251 -2.39477,-5.13793 -1.31712,-0.50543 -2.01599,-1.90603 -1.55304,-3.11244 0.46294,-1.20642 0.0406,-2.68861 -0.93857,-3.29377 -0.97916,-0.60515 -1.80414,-2.74351 -1.8333,-4.75192 -0.0292,-2.0084 -1.13012,-5.07463 -2.44661,-6.81384 -1.31648,-1.73921 -2.06856,-3.68813 -1.67129,-4.33092 0.39727,-0.6428 -0.58587,-2.59481 -2.18475,-4.3378 -1.59888,-1.74299 -2.64295,-4.48157 -2.32016,-6.08574 0.3228,-1.60417 -0.21809,-2.91667 -1.20197,-2.91667 -0.98388,0 -1.78888,-1.725 -1.78888,-3.83333 0,-2.10833 -0.80197,-4.63531 -1.78217,-5.6155 -0.98019,-0.9802 -1.98075,-2.8177 -2.22346,-4.08334 -0.24272,-1.26564 -1.40912,-4.55116 -2.59202,-7.30116 -2.54196,-5.909545 -3.99126,-9.616499 -6.84197,-17.5 -1.16015,-3.208334 -3.14213,-7.051964 -4.4044,-8.541402 -1.26227,-1.489437 -2.13287,-3.364437 -1.93466,-4.166667 0.34253,-1.386296 -2.1741,-8.074411 -5.40065,-14.35265 -0.81804,-1.591728 -1.48733,-3.937395 -1.48733,-5.212591 0,-1.275199 -1.08042,-3.21521 -2.40094,-4.311137 -1.32051,-1.095928 -2.03638,-2.942602 -1.59081,-4.103718 0.44556,-1.161117 -0.30444,-3.036117 -1.66667,-4.166667 -1.36223,-1.13055 -2.08937,-3.06512 -1.61587,-4.299043 0.4735,-1.233924 -0.40734,-4.179089 -1.95742,-6.544812 C 852.19211,20.935591 851.47695,19 852.15295,19 c 0.676,0 0.35575,-1.052312 -0.71166,-2.33847 -1.06742,-1.286159 -2.59136,-4.606971 -3.38653,-7.379583 -1.15237,-4.0180858 -0.8845,-5.2883601 1.32001,-6.2594608 1.52119,-0.6700917 3.51579,-1.0209877 4.43246,-0.779769 5.19201,1.3662643 97.5002,0.706928 97.50011,-0.6964212 -6e-5,-0.89120372 1.61382,-0.00643 3.5864,1.9661419 2.909,2.9089956 3.62411,5.7098526 3.78555,14.8266631 0.13717,7.746569 0.89015,11.470525 2.42262,11.981349 1.68728,0.562426 1.94826,-0.512387 1.08203,-4.456294 -0.71798,-3.268946 -0.48579,-5.19749 0.62578,-5.19749 0.97203,0 2.25736,2.0625 2.85627,4.583334 0.59891,2.520833 1.9257,5.708333 2.94842,7.083333 3.48192,4.681288 6.02615,9.949232 6.02615,12.477385 0,1.387438 0.58642,2.522615 1.30316,2.522615 0.71673,0 1.47111,2.029375 1.67639,4.509723 0.20528,2.480347 1.11886,5.255347 2.03018,6.166667 0.91131,0.911318 1.65694,3.030482 1.65694,4.709252 0,1.678768 1.07764,3.465838 2.39476,3.971265 1.36327,0.523136 1.96451,2.040175 1.39587,3.522036 -0.58257,1.51814 0.28872,3.544609 2.09045,4.86207 1.69914,1.242442 2.61002,2.258987 2.02417,2.258987 -0.58585,0 -0.28083,2.25 0.67782,5 0.95866,2.75 2.39611,5 3.19433,5 0.79822,0 1.04872,1.049137 0.55667,2.331415 -0.49206,1.28228 -0.0935,2.826542 0.88564,3.431695 0.97916,0.605155 1.78029,2.931017 1.78029,5.168585 0,2.237572 0.75,4.068302 1.66667,4.068302 0.91666,0 1.67128,0.9375 1.67693,2.08334 0.006,1.14583 1.12667,4.22389 2.49117,6.84013 1.3645,2.61623 2.0623,5.43403 1.5507,6.26177 -0.5115,0.82773 0.2425,1.95492 1.6756,2.50485 1.4331,0.54993 2.6056,2.71439 2.6056,4.80991 0,2.09552 1.125,4.24174 2.5,4.76938 1.375,0.52764 2.5,2.85788 2.5,5.17831 0,2.32044 0.7943,4.21898 1.765,4.21898 0.9708,0 1.3015,0.75 0.735,1.66667 -0.5665,0.91666 -0.2593,1.66666 0.6827,1.66666 0.942,0 1.3271,1.00484 0.8558,2.23298 -0.4713,1.22814 0.294,3.18812 1.7006,4.35551 1.4066,1.16739 2.1262,2.82041 1.5991,3.67337 -0.5272,0.85295 0.032,2.74462 1.2432,4.20371 1.2109,1.45909 2.2559,3.48873 2.3221,4.51032 0.1258,1.9412 1.2918,5.14946 4.9155,13.52411 1.1898,2.75 3.0799,7.25 4.2,10 1.1201,2.75 2.6991,6.30232 3.5088,7.89405 0.8097,1.59174 1.4722,4.05277 1.4722,5.46899 0,1.4162 1.0776,2.98845 2.3948,3.49386 1.3171,0.50544 2.0002,1.9471 1.518,3.20374 -0.4822,1.25661 0.3151,3.98643 1.7719,6.06625 1.4567,2.0798 2.6486,5.13813 2.6486,6.79626 0,1.65814 1.0421,3.4147 2.3158,3.90347 1.3326,0.51135 1.96,2.24963 1.4776,4.0941 -0.519,1.98457 0.1823,3.59707 1.8413,4.23367 1.4737,0.56553 2.2686,1.69311 1.7664,2.50575 -1.02,1.65033 6.117,18.1732 7.8498,18.1732 0.6071,0 0.7336,1.41535 0.2812,3.14523 -0.4523,1.72988 -0.01,3.64915 0.9894,4.26503 0.9965,0.61589 1.8119,2.59907 1.8119,4.40707 0,1.808 1.1808,3.7404 2.6239,4.2942 1.7719,0.67992 2.3141,2.2419 1.6696,4.80977 -0.525,2.09155 -0.1649,4.06601 0.8001,4.38768 0.965,0.32167 1.95,1.91638 2.1888,3.54382 0.2389,1.62741 1.6364,4.36291 3.1057,6.07888 1.4692,1.71597 2.2376,3.55372 1.7074,4.0839 -0.5302,0.5302 0.3549,2.42132 1.9668,4.20252 1.612,1.78118 2.4702,3.98396 1.9071,4.89505 -0.5631,0.91108 -0.2616,2.12761 0.67,2.70338 0.9317,0.57577 1.6939,2.7276 1.6939,4.78183 0,2.05424 0.802,4.53695 1.7822,5.51714 0.9802,0.9802 1.9498,2.8177 2.1548,4.08333 0.7279,4.49535 6.7291,16.46783 8.2545,16.46783 0.8525,0 0.7549,0.95802 -0.2169,2.12894 -1.353,1.63025 -14.6486,2.24173 -56.7599,2.61045 l -54.99311,0.48153 -2.49728,-3.86047 0,0 z M 962.9739,268.16667 c 0,-1.375 -0.70574,-2.5 -1.56831,-2.5 -2.10163,0 -3.60682,2.60265 -2.27527,3.9342 1.87697,1.87696 3.84358,1.14315 3.84358,-1.4342 z m -1.01165,-6.80299 c 1.54831,-4.03483 1.22013,-5.69701 -1.12484,-5.69701 -1.17507,0 -2.29167,1.875 -2.48133,4.16666 -0.38273,4.62444 2.02652,5.64685 3.60617,1.53035 z m 0.8945,-15.28035 c 0.1878,-3.33983 -2.89116,-2.39966 -4.04479,1.23509 -1.45872,4.59601 0.99347,8.341 2.66563,4.07095 0.69411,-1.77249 1.31474,-4.1602 1.37916,-5.30604 l 0,0 z m 0.11715,-7.91666 c 0,-1.375 -0.70574,-2.5 -1.56831,-2.5 -2.10163,0 -3.60682,2.60265 -2.27527,3.9342 1.87697,1.87696 3.84358,1.14315 3.84358,-1.4342 z m -1.01165,-6.80299 c 1.54831,-4.03483 1.22013,-5.69701 -1.12484,-5.69701 -1.17507,0 -2.29167,1.875 -2.48133,4.16666 -0.38273,4.62444 2.02652,5.64685 3.60617,1.53035 z m 0.8945,-15.28035 c 0.1878,-3.33983 -2.89116,-2.39966 -4.04479,1.23509 -1.45872,4.59601 0.99347,8.341 2.66563,4.07095 0.69411,-1.77249 1.31474,-4.1602 1.37916,-5.30604 l 0,0 z m 0.11715,-7.91666 c 0,-1.375 -0.70574,-2.5 -1.56831,-2.5 -2.10163,0 -3.60682,2.60265 -2.27527,3.9342 1.87697,1.87696 3.84358,1.14315 3.84358,-1.4342 z m -1.01165,-6.80299 c 1.54831,-4.03483 1.22013,-5.69701 -1.12484,-5.69701 -1.17507,0 -2.29167,1.875 -2.48133,4.16666 -0.38273,4.62444 2.02652,5.64685 3.60617,1.53035 z m 0.8945,-15.28035 c 0.1878,-3.33983 -2.89116,-2.39966 -4.04479,1.23509 -1.45872,4.59601 0.99347,8.341 2.66563,4.07095 0.69411,-1.77249 1.31474,-4.1602 1.37916,-5.30604 l 0,0 z m 0.11715,-7.91666 c 0,-1.375 -0.70574,-2.5 -1.56831,-2.5 -2.10163,0 -3.60682,2.60265 -2.27527,3.9342 1.87697,1.87696 3.84358,1.14315 3.84358,-1.4342 z m -1.01165,-6.80299 c 1.54831,-4.03483 1.22013,-5.69701 -1.12484,-5.69701 -1.17507,0 -2.29167,1.875 -2.48133,4.16666 -0.38273,4.62444 2.02652,5.64685 3.60617,1.53035 z m 0.8945,-15.28035 c 0.1878,-3.33983 -2.89116,-2.39966 -4.04479,1.23509 -1.45872,4.59602 0.99347,8.341 2.66563,4.07095 0.69411,-1.77249 1.31474,-4.1602 1.37916,-5.30604 z m 0.11715,-7.91666 c 0,-1.375 -0.70574,-2.5 -1.56831,-2.5 -2.10163,0 -3.60682,2.60264 -2.27527,3.9342 1.87697,1.87697 3.84358,1.14315 3.84358,-1.4342 z m -1.01165,-6.80298 c 1.54831,-4.03485 1.22013,-5.69702 -1.12484,-5.69702 -1.17507,0 -2.29167,1.875 -2.48133,4.16666 -0.38273,4.62443 2.02652,5.64685 3.60617,1.53036 z m 0.8945,-15.28036 c 0.1878,-3.33983 -2.89116,-2.39966 -4.04479,1.23509 -1.45872,4.59602 0.99347,8.341 2.66563,4.07095 0.69411,-1.77249 1.31474,-4.1602 1.37916,-5.30604 z m 0.11715,-7.91666 c 0,-1.375 -0.70574,-2.5 -1.56831,-2.5 -2.10163,0 -3.60682,2.60264 -2.27527,3.9342 1.87697,1.87697 3.84358,1.14315 3.84358,-1.4342 z m -1.01165,-6.80298 c 1.54831,-4.03485 1.22013,-5.69702 -1.12484,-5.69702 -1.17507,0 -2.29167,1.875 -2.48133,4.16666 -0.38273,4.62443 2.02652,5.64685 3.60617,1.53036 z m 0.8945,-15.280357 c 0.1878,-3.339833 -2.89116,-2.399667 -4.04479,1.235085 -1.45872,4.596022 0.99347,8.341002 2.66563,4.070952 0.69411,-1.772485 1.31474,-4.160204 1.37916,-5.306037 z m 0.11715,-7.916667 c 0,-1.375 -0.70574,-2.5 -1.56831,-2.5 -2.10163,0 -3.60682,2.602649 -2.27527,3.9342 1.87697,1.876974 3.84358,1.14315 3.84358,-1.4342 z m -1.01165,-6.802978 c 1.54831,-4.034843 1.22013,-5.697022 -1.12484,-5.697022 -1.17507,0 -2.29167,1.875 -2.48133,4.166667 -0.38273,4.62443 2.02652,5.646848 3.60617,1.530355 z m 0.8945,-15.280355 c 0.1878,-3.339833 -2.89116,-2.399667 -4.04479,1.235085 -1.45872,4.596018 0.99347,8.341002 2.66563,4.070955 0.69411,-1.772488 1.31474,-4.160207 1.37916,-5.30604 z m 0.11715,-7.916667 c 0,-1.375 -0.70574,-2.5 -1.56831,-2.5 -2.10163,0 -3.60682,2.602649 -2.27527,3.9342 1.87697,1.876974 3.84358,1.14315 3.84358,-1.4342 z m -1.01165,-6.802978 c 1.54831,-4.034843 1.22013,-5.697022 -1.12484,-5.697022 -1.17507,0 -2.29167,1.875 -2.48133,4.166667 -0.38273,4.62443 2.02652,5.646848 3.60617,1.530355 z m 0.8945,-15.280355 c 0.1878,-3.339833 -2.89116,-2.399667 -4.04479,1.235085 -1.45872,4.596018 0.99347,8.341002 2.66563,4.070955 0.69411,-1.772488 1.31474,-4.160207 1.37916,-5.30604 z"
       id="path7420"
       inkscape:connector-curvature="0" />
    <path
       style="fill:#ffffff;stroke:none"
       d="m 980.69821,333.69378 c -1.3735,-2.12325 -3.48097,-7.04795 -4.68326,-10.94378 -1.20229,-3.89583 -2.75337,-7.08333 -3.44685,-7.08333 -0.69348,0 -1.26087,-1.52639 -1.26087,-3.39197 0,-1.86558 -1.21126,-5.24058 -2.69168,-7.5 -1.48043,-2.25942 -2.21314,-4.10803 -1.62825,-4.10803 0.58489,0 -0.2076,-1.93985 -1.7611,-4.31079 -1.70902,-2.6083 -2.90293,-7.97321 -3.02304,-13.58421 -0.17015,-7.94919 -0.7243,-9.46794 -3.88055,-10.6355 -2.05162,-0.75895 -3.68205,-2.78294 -3.68205,-4.57082 0,-1.7648 -1.17253,-3.65867 -2.60563,-4.2086 -1.4331,-0.54993 -2.1577,-1.72467 -1.61021,-2.61052 0.54749,-0.88585 0.25636,-2.95365 -0.64696,-4.5951 -0.90331,-1.64146 -2.86677,-5.98446 -4.36324,-9.65113 -1.49647,-3.66667 -3.4078,-7.96898 -4.2474,-9.56072 -0.83961,-1.59173 -1.52656,-4.05276 -1.52656,-5.46898 0,-1.4162 -0.96687,-2.94593 -2.1486,-3.39942 -1.18173,-0.45346 -2.26916,-2.42495 -2.41651,-4.38105 -0.14735,-1.95611 -0.86798,-3.99906 -1.6014,-4.53986 -0.73342,-0.54082 -1.57545,-2.8583 -1.87117,-5.14997 -0.29573,-2.29167 -1.48656,-4.91667 -2.64629,-5.83333 -1.15973,-0.91667 -1.75207,-2.72627 -1.31631,-4.02134 0.43575,-1.29506 -0.24842,-3.17006 -1.52038,-4.16666 -1.27197,-0.9966 -2.56887,-3.312 -2.88201,-5.14534 -0.31314,-1.83333 -1.25064,-3.58333 -2.08333,-3.88888 -0.8327,-0.30557 -1.514,-2.3916 -1.514,-4.63565 0,-2.24405 -1.07764,-4.49362 -2.39476,-4.99903 -1.31712,-0.50544 -2.00023,-1.9471 -1.51802,-3.20374 0.48222,-1.25661 -0.31514,-3.98643 -1.7719,-6.06625 -1.45676,-2.0798 -2.64865,-5.11458 -2.64865,-6.74396 0,-1.62937 -0.75,-2.96249 -1.66667,-2.96249 -0.91666,0 -1.66666,-1.89854 -1.66666,-4.21897 0,-2.32044 -1.07765,-4.63251 -2.39477,-5.13793 -1.31712,-0.50543 -2.01599,-1.90603 -1.55304,-3.11244 0.46294,-1.20642 0.0406,-2.68861 -0.93857,-3.29377 -0.97916,-0.60515 -1.80414,-2.74351 -1.8333,-4.75192 -0.0292,-2.0084 -1.13012,-5.07463 -2.44661,-6.81384 -1.31648,-1.73921 -2.06856,-3.68813 -1.67129,-4.33092 0.39727,-0.6428 -0.58587,-2.59481 -2.18475,-4.3378 -1.59888,-1.74299 -2.64295,-4.48157 -2.32016,-6.08574 0.3228,-1.60417 -0.21809,-2.91667 -1.20197,-2.91667 -0.98388,0 -1.78888,-1.725 -1.78888,-3.83333 0,-2.10833 -0.80197,-4.63531 -1.78217,-5.6155 -0.98019,-0.9802 -1.98075,-2.8177 -2.22346,-4.08334 -0.24272,-1.26564 -1.40912,-4.55116 -2.59202,-7.30116 -2.54196,-5.909545 -3.99126,-9.616499 -6.84197,-17.5 -1.16015,-3.208334 -3.14213,-7.051964 -4.4044,-8.541402 -1.26227,-1.489437 -2.13287,-3.364437 -1.93466,-4.166667 0.34253,-1.386296 -2.1741,-8.074411 -5.40065,-14.35265 -0.81804,-1.591728 -1.48733,-3.937395 -1.48733,-5.212591 0,-1.275199 -1.08042,-3.21521 -2.40094,-4.311137 -1.32051,-1.095928 -2.03638,-2.942602 -1.59081,-4.103718 0.44556,-1.161117 -0.30444,-3.036117 -1.66667,-4.166667 -1.36223,-1.13055 -2.08937,-3.06512 -1.61587,-4.299043 0.4735,-1.233924 -0.40734,-4.179089 -1.95742,-6.544812 C 852.19211,20.935591 851.47695,19 852.15295,19 c 0.676,0 0.35575,-1.052312 -0.71166,-2.33847 -1.06742,-1.286159 -2.59136,-4.606971 -3.38653,-7.379583 -1.15237,-4.0180858 -0.8845,-5.2883601 1.32001,-6.2594608 1.52119,-0.6700917 3.51579,-1.0209877 4.43246,-0.779769 5.19201,1.3662643 97.5002,0.706928 97.50011,-0.6964212 -6e-5,-0.89120372 1.61382,-0.00643 3.5864,1.9661419 2.909,2.9089956 3.62411,5.7098526 3.78555,14.8266631 0.13717,7.746569 0.89015,11.470525 2.42262,11.981349 1.68728,0.562426 1.94826,-0.512387 1.08203,-4.456294 -0.71798,-3.268946 -0.48579,-5.19749 0.62578,-5.19749 0.97203,0 2.25736,2.0625 2.85627,4.583334 0.59891,2.520833 1.9257,5.708333 2.94842,7.083333 3.48192,4.681288 6.02615,9.949232 6.02615,12.477385 0,1.387438 0.58642,2.522615 1.30316,2.522615 0.71673,0 1.47111,2.029375 1.67639,4.509723 0.20528,2.480347 1.11886,5.255347 2.03018,6.166667 0.91131,0.911318 1.65694,3.030482 1.65694,4.709252 0,1.678768 1.07764,3.465838 2.39476,3.971265 1.36327,0.523136 1.96451,2.040175 1.39587,3.522036 -0.58257,1.51814 0.28872,3.544609 2.09045,4.86207 1.69914,1.242442 2.61002,2.258987 2.02417,2.258987 -0.58585,0 -0.28083,2.25 0.67782,5 0.95866,2.75 2.39611,5 3.19433,5 0.79822,0 1.04872,1.049137 0.55667,2.331415 -0.49206,1.28228 -0.0935,2.826542 0.88564,3.431695 0.97916,0.605155 1.78029,2.931017 1.78029,5.168585 0,2.237572 0.75,4.068302 1.66667,4.068302 0.91666,0 1.67128,0.9375 1.67693,2.08334 0.006,1.14583 1.12667,4.22389 2.49117,6.84013 1.3645,2.61623 2.0623,5.43403 1.5507,6.26177 -0.5115,0.82773 0.2425,1.95492 1.6756,2.50485 1.4331,0.54993 2.6056,2.71439 2.6056,4.80991 0,2.09552 1.125,4.24174 2.5,4.76938 1.375,0.52764 2.5,2.85788 2.5,5.17831 0,2.32044 0.7943,4.21898 1.765,4.21898 0.9708,0 1.3015,0.75 0.735,1.66667 -0.5665,0.91666 -0.2593,1.66666 0.6827,1.66666 0.942,0 1.3271,1.00484 0.8558,2.23298 -0.4713,1.22814 0.294,3.18812 1.7006,4.35551 1.4066,1.16739 2.1262,2.82041 1.5991,3.67337 -0.5272,0.85295 0.032,2.74462 1.2432,4.20371 1.2109,1.45909 2.2559,3.48873 2.3221,4.51032 0.1258,1.9412 1.2918,5.14946 4.9155,13.52411 1.1898,2.75 3.0799,7.25 4.2,10 1.1201,2.75 2.6991,6.30232 3.5088,7.89405 0.8097,1.59174 1.4722,4.05277 1.4722,5.46899 0,1.4162 1.0776,2.98845 2.3948,3.49386 1.3171,0.50544 2.0002,1.9471 1.518,3.20374 -0.4822,1.25661 0.3151,3.98643 1.7719,6.06625 1.4567,2.0798 2.6486,5.13813 2.6486,6.79626 0,1.65814 1.0421,3.4147 2.3158,3.90347 1.3326,0.51135 1.96,2.24963 1.4776,4.0941 -0.519,1.98457 0.1823,3.59707 1.8413,4.23367 1.4737,0.56553 2.2686,1.69311 1.7664,2.50575 -1.02,1.65033 6.117,18.1732 7.8498,18.1732 0.6071,0 0.7336,1.41535 0.2812,3.14523 -0.4523,1.72988 -0.01,3.64915 0.9894,4.26503 0.9965,0.61589 1.8119,2.59907 1.8119,4.40707 0,1.808 1.1808,3.7404 2.6239,4.2942 1.7719,0.67992 2.3141,2.2419 1.6696,4.80977 -0.525,2.09155 -0.1649,4.06601 0.8001,4.38768 0.965,0.32167 1.95,1.91638 2.1888,3.54382 0.2389,1.62741 1.6364,4.36291 3.1057,6.07888 1.4692,1.71597 2.2376,3.55372 1.7074,4.0839 -0.5302,0.5302 0.3549,2.42132 1.9668,4.20252 1.612,1.78118 2.4702,3.98396 1.9071,4.89505 -0.5631,0.91108 -0.2616,2.12761 0.67,2.70338 0.9317,0.57577 1.6939,2.7276 1.6939,4.78183 0,2.05424 0.802,4.53695 1.7822,5.51714 0.9802,0.9802 1.9498,2.8177 2.1548,4.08333 0.7279,4.49535 6.7291,16.46783 8.2545,16.46783 0.8525,0 0.7549,0.95802 -0.2169,2.12894 -1.353,1.63025 -14.6486,2.24173 -56.7599,2.61045 l -54.99311,0.48153 -2.49728,-3.86047 0,0 z M 962.9739,268.16667 c 0,-1.375 -0.70574,-2.5 -1.56831,-2.5 -2.10163,0 -3.60682,2.60265 -2.27527,3.9342 1.87697,1.87696 3.84358,1.14315 3.84358,-1.4342 z m -1.01165,-6.80299 c 1.54831,-4.03483 1.22013,-5.69701 -1.12484,-5.69701 -1.17507,0 -2.29167,1.875 -2.48133,4.16666 -0.38273,4.62444 2.02652,5.64685 3.60617,1.53035 z m 0.8945,-15.28035 c 0.1878,-3.33983 -2.89116,-2.39966 -4.04479,1.23509 -1.45872,4.59601 0.99347,8.341 2.66563,4.07095 0.69411,-1.77249 1.31474,-4.1602 1.37916,-5.30604 l 0,0 z m 0.11715,-7.91666 c 0,-1.375 -0.70574,-2.5 -1.56831,-2.5 -2.10163,0 -3.60682,2.60265 -2.27527,3.9342 1.87697,1.87696 3.84358,1.14315 3.84358,-1.4342 z m -1.01165,-6.80299 c 1.54831,-4.03483 1.22013,-5.69701 -1.12484,-5.69701 -1.17507,0 -2.29167,1.875 -2.48133,4.16666 -0.38273,4.62444 2.02652,5.64685 3.60617,1.53035 z m 0.8945,-15.28035 c 0.1878,-3.33983 -2.89116,-2.39966 -4.04479,1.23509 -1.45872,4.59601 0.99347,8.341 2.66563,4.07095 0.69411,-1.77249 1.31474,-4.1602 1.37916,-5.30604 l 0,0 z m 0.11715,-7.91666 c 0,-1.375 -0.70574,-2.5 -1.56831,-2.5 -2.10163,0 -3.60682,2.60265 -2.27527,3.9342 1.87697,1.87696 3.84358,1.14315 3.84358,-1.4342 z m -1.01165,-6.80299 c 1.54831,-4.03483 1.22013,-5.69701 -1.12484,-5.69701 -1.17507,0 -2.29167,1.875 -2.48133,4.16666 -0.38273,4.62444 2.02652,5.64685 3.60617,1.53035 z m 0.8945,-15.28035 c 0.1878,-3.33983 -2.89116,-2.39966 -4.04479,1.23509 -1.45872,4.59601 0.99347,8.341 2.66563,4.07095 0.69411,-1.77249 1.31474,-4.1602 1.37916,-5.30604 l 0,0 z m 0.11715,-7.91666 c 0,-1.375 -0.70574,-2.5 -1.56831,-2.5 -2.10163,0 -3.60682,2.60265 -2.27527,3.9342 1.87697,1.87696 3.84358,1.14315 3.84358,-1.4342 z m -1.01165,-6.80299 c 1.54831,-4.03483 1.22013,-5.69701 -1.12484,-5.69701 -1.17507,0 -2.29167,1.875 -2.48133,4.16666 -0.38273,4.62444 2.02652,5.64685 3.60617,1.53035 z m 0.8945,-15.28035 c 0.1878,-3.33983 -2.89116,-2.39966 -4.04479,1.23509 -1.45872,4.59602 0.99347,8.341 2.66563,4.07095 0.69411,-1.77249 1.31474,-4.1602 1.37916,-5.30604 z m 0.11715,-7.91666 c 0,-1.375 -0.70574,-2.5 -1.56831,-2.5 -2.10163,0 -3.60682,2.60264 -2.27527,3.9342 1.87697,1.87697 3.84358,1.14315 3.84358,-1.4342 z m -1.01165,-6.80298 c 1.54831,-4.03485 1.22013,-5.69702 -1.12484,-5.69702 -1.17507,0 -2.29167,1.875 -2.48133,4.16666 -0.38273,4.62443 2.02652,5.64685 3.60617,1.53036 z m 0.8945,-15.28036 c 0.1878,-3.33983 -2.89116,-2.39966 -4.04479,1.23509 -1.45872,4.59602 0.99347,8.341 2.66563,4.07095 0.69411,-1.77249 1.31474,-4.1602 1.37916,-5.30604 z m 0.11715,-7.91666 c 0,-1.375 -0.70574,-2.5 -1.56831,-2.5 -2.10163,0 -3.60682,2.60264 -2.27527,3.9342 1.87697,1.87697 3.84358,1.14315 3.84358,-1.4342 z m -1.01165,-6.80298 c 1.54831,-4.03485 1.22013,-5.69702 -1.12484,-5.69702 -1.17507,0 -2.29167,1.875 -2.48133,4.16666 -0.38273,4.62443 2.02652,5.64685 3.60617,1.53036 z m 0.8945,-15.280357 c 0.1878,-3.339833 -2.89116,-2.399667 -4.04479,1.235085 -1.45872,4.596022 0.99347,8.341002 2.66563,4.070952 0.69411,-1.772485 1.31474,-4.160204 1.37916,-5.306037 z m 0.11715,-7.916667 c 0,-1.375 -0.70574,-2.5 -1.56831,-2.5 -2.10163,0 -3.60682,2.602649 -2.27527,3.9342 1.87697,1.876974 3.84358,1.14315 3.84358,-1.4342 z m -1.01165,-6.802978 c 1.54831,-4.034843 1.22013,-5.697022 -1.12484,-5.697022 -1.17507,0 -2.29167,1.875 -2.48133,4.166667 -0.38273,4.62443 2.02652,5.646848 3.60617,1.530355 z m 0.8945,-15.280355 c 0.1878,-3.339833 -2.89116,-2.399667 -4.04479,1.235085 -1.45872,4.596018 0.99347,8.341002 2.66563,4.070955 0.69411,-1.772488 1.31474,-4.160207 1.37916,-5.30604 z m 0.11715,-7.916667 c 0,-1.375 -0.70574,-2.5 -1.56831,-2.5 -2.10163,0 -3.60682,2.602649 -2.27527,3.9342 1.87697,1.876974 3.84358,1.14315 3.84358,-1.4342 z m -1.01165,-6.802978 c 1.54831,-4.034843 1.22013,-5.697022 -1.12484,-5.697022 -1.17507,0 -2.29167,1.875 -2.48133,4.166667 -0.38273,4.62443 2.02652,5.646848 3.60617,1.530355 z m 0.8945,-15.280355 c 0.1878,-3.339833 -2.89116,-2.399667 -4.04479,1.235085 -1.45872,4.596018 0.99347,8.341002 2.66563,4.070955 0.69411,-1.772488 1.31474,-4.160207 1.37916,-5.30604 z"
       id="path7422"
       inkscape:connector-curvature="0" />
    <path
       style="fill:#f9f9f9;fill-opacity:1;fill-rule:nonzero;stroke:none"
       d="m 980.5729,331.23927 c -12.71769,-27.81657 -17.599,-41.3681 -17.599,-48.85855 0,-4.20897 -1.10854,-7.6598 -3.07288,-9.56579 -3.97423,-3.85616 -6.95832,-9.6034 -14.52864,-27.9816 -3.39833,-8.25 -6.70252,-15.75 -7.34264,-16.66666 -0.64012,-0.91667 -2.15206,-4.29167 -3.35986,-7.5 -3.23311,-8.58824 -7.25039,-18.16427 -14.683,-35 -1.8211,-4.125 -4.50018,-10.6556 -5.95351,-14.51245 -1.45334,-3.85686 -4.07248,-10.23186 -5.82033,-14.16667 -1.74784,-3.93482 -4.13548,-9.77922 -5.30586,-12.98755 -1.17038,-3.20833 -3.79736,-9.58333 -5.83772,-14.16667 C 895.02909,125.25 889.2079,111 884.13347,98.166666 879.05905,85.333333 870.79179,64.708333 865.76178,52.333333 853.22369,21.486688 847.45671,5.6282964 848.42511,4.6598932 c 0.44862,-0.4486137 24.23113,-0.9870915 52.85002,-1.1966172 60.28158,-0.4413358 56.69877,-1.4991995 56.69877,16.7409 0,8.18888 0.54327,10.46249 2.5,10.46249 1.6071,0 2.51333,-1.636968 2.53734,-4.583333 0.0311,-3.8161 0.86775,-2.909368 4.99808,5.416667 2.72841,5.5 6.80712,15.02547 9.06381,21.167711 2.25669,6.142244 4.79505,12.517244 5.6408,14.166667 0.84575,1.649425 2.33428,4.873955 3.30784,7.165622 0.97357,2.291666 3.31107,7.688018 5.19446,11.991893 1.88338,4.303875 3.42433,8.289432 3.42433,8.856795 0,0.567363 1.875,5.130737 4.16667,10.140832 2.29167,5.0101 4.16667,9.72533 4.16667,10.47831 0,0.75297 1.9592,5.04324 4.3537,9.53394 2.3946,4.49069 10.3333,23.1649 17.6416,41.49823 7.3084,18.33333 13.9742,34.04583 14.813,34.91667 0.8388,0.87083 1.525,2.60478 1.525,3.85321 0,1.24842 1.9355,6.53592 4.3011,11.75 2.3657,5.21407 4.8773,10.98012 5.5814,12.81345 0.7041,1.83334 3.2686,7.66245 5.6989,12.95359 2.4302,5.29115 4.4186,10.38988 4.4186,11.33051 0,0.94064 1.5,4.8149 3.3334,8.60947 1.8333,3.79455 3.3333,7.84045 3.3333,8.99088 0,1.15042 1.4588,4.57205 3.2418,7.60362 1.783,3.03157 6.7637,14.88693 11.0682,26.34527 4.3046,11.45833 8.8898,22.45633 10.1893,24.44 2.1094,3.21971 2.0395,3.69706 -0.6515,4.44948 -1.658,0.46357 -26.7082,1.34823 -55.6672,1.96593 l -52.65281,1.12312 -2.92879,-6.40593 0,0 z m -17.599,-63.21149 c 0,-1.4514 -0.89063,-2.34201 -1.97917,-1.97916 -3.09037,1.03011 -3.60293,4.61805 -0.65972,4.61805 1.45139,0 2.63889,-1.1875 2.63889,-2.63889 z m -0.30075,-8.74166 c 0.35369,-2.40369 -0.3461,-3.61945 -2.08334,-3.61945 -1.7017,0 -2.61591,1.50471 -2.61591,4.30555 0,5.2212 3.91411,4.64973 4.69925,-0.6861 l 0,0 z m -0.7109,-7.92244 C 963.67621,246.89718 963.09063,244 960.4739,244 c -1.66667,0 -2.5,1.66667 -2.5,5 0,5.34283 2.31798,6.71658 3.98835,2.36368 l 0,0 z m 1.01165,-13.3359 c 0,-2.94321 -3.58794,-2.43065 -4.61806,0.65972 -0.36285,1.08853 0.52778,1.97917 1.97917,1.97917 1.45139,0 2.63889,-1.1875 2.63889,-2.63889 z m -0.30075,-8.74166 c 0.35369,-2.40369 -0.3461,-3.61945 -2.08334,-3.61945 -1.7017,0 -2.61591,1.50471 -2.61591,4.30555 0,5.2212 3.91411,4.64973 4.69925,-0.6861 l 0,0 z m -0.7109,-7.92244 C 963.67621,216.89718 963.09063,214 960.4739,214 c -1.66667,0 -2.5,1.66667 -2.5,5 0,5.34283 2.31798,6.71658 3.98835,2.36368 l 0,0 z m 1.01165,-13.3359 c 0,-2.94321 -3.58794,-2.43065 -4.61806,0.65972 -0.36285,1.08855 0.52778,1.97917 1.97917,1.97917 1.45139,0 2.63889,-1.1875 2.63889,-2.63889 z m -0.30075,-8.74166 c 0.35369,-2.40369 -0.3461,-3.61945 -2.08334,-3.61945 -1.7017,0 -2.61591,1.50471 -2.61591,4.30555 0,5.2212 3.91411,4.64973 4.69925,-0.6861 l 0,0 z m -0.7109,-7.92244 C 963.67621,186.89718 963.09063,184 960.4739,184 c -1.66667,0 -2.5,1.66667 -2.5,5 0,5.34283 2.31798,6.71658 3.98835,2.36368 l 0,0 z m 1.01165,-13.3359 c 0,-2.94321 -3.58794,-2.43065 -4.61806,0.65972 -0.36285,1.08855 0.52778,1.97917 1.97917,1.97917 1.45139,0 2.63889,-1.1875 2.63889,-2.63889 z m -0.30075,-8.74166 c 0.35369,-2.40368 -0.3461,-3.61945 -2.08334,-3.61945 -1.7017,0 -2.61591,1.50471 -2.61591,4.30555 0,5.2212 3.91411,4.64973 4.69925,-0.6861 l 0,0 z m -0.7109,-7.92243 C 963.67621,156.89718 963.09063,154 960.4739,154 c -1.66667,0 -2.5,1.66667 -2.5,5 0,5.34283 2.31798,6.71658 3.98835,2.36369 z m 1.01165,-13.33591 c 0,-1.45139 -0.89063,-2.34202 -1.97917,-1.97917 -3.09037,1.03012 -3.60293,4.61806 -0.65972,4.61806 1.45139,0 2.63889,-1.1875 2.63889,-2.63889 z m -0.30075,-8.74166 c 0.35369,-2.40368 -0.3461,-3.61945 -2.08334,-3.61945 -1.7017,0 -2.61591,1.50471 -2.61591,4.30555 0,5.2212 3.91411,4.64973 4.69925,-0.6861 z m -0.7109,-7.92243 C 963.67621,126.89718 963.09063,124 960.4739,124 c -1.66667,0 -2.5,1.66667 -2.5,5 0,5.34283 2.31798,6.71658 3.98835,2.36369 z m 1.01165,-13.33591 c 0,-2.94321 -3.58794,-2.43065 -4.61806,0.65972 -0.36285,1.08854 0.52778,1.97917 1.97917,1.97917 1.45139,0 2.63889,-1.1875 2.63889,-2.63889 z m -0.30075,-8.74166 c 0.35369,-2.40368 -0.3461,-3.61945 -2.08334,-3.61945 -1.7017,0 -2.61591,1.50471 -2.61591,4.30555 0,5.2212 3.91411,4.64973 4.69925,-0.6861 z m -0.7109,-7.92243 C 963.67621,96.897185 963.09063,94 960.4739,94 c -1.66667,0 -2.5,1.666666 -2.5,5 0,5.34283 2.31798,6.71658 3.98835,2.36369 z m 1.01165,-13.335912 c 0,-2.943212 -3.58794,-2.43065 -4.61806,0.659722 -0.36285,1.088541 0.52778,1.979166 1.97917,1.979166 1.45139,0 2.63889,-1.1875 2.63889,-2.638888 z m -0.30075,-8.741658 c 0.35369,-2.40368 -0.3461,-3.619454 -2.08334,-3.619454 -1.7017,0 -2.61591,1.50471 -2.61591,4.305555 0,5.221195 3.91411,4.649725 4.69925,-0.686101 z m -0.7109,-7.922432 C 963.67621,66.897185 963.09063,64 960.4739,64 c -1.66667,0 -2.5,1.666666 -2.5,5 0,5.342835 2.31798,6.716585 3.98835,2.363688 z m 1.01165,-13.33591 c 0,-2.943212 -3.58794,-2.43065 -4.61806,0.659722 -0.36285,1.088541 0.52778,1.979166 1.97917,1.979166 1.45139,0 2.63889,-1.1875 2.63889,-2.638888 z m -0.30075,-8.741658 c 0.35369,-2.40368 -0.3461,-3.619454 -2.08334,-3.619454 -1.7017,0 -2.61591,1.50471 -2.61591,4.305555 0,5.221195 3.91411,4.649725 4.69925,-0.686101 z m -0.7109,-7.922432 C 963.67621,36.897185 963.09063,34 960.4739,34 c -1.66667,0 -2.5,1.666666 -2.5,5 0,5.342835 2.31798,6.716585 3.98835,2.363688 z"
       id="path7424"
       inkscape:connector-curvature="0" />
    <path
       style="fill:#f9f9f9;fill-opacity:1;fill-rule:nonzero;stroke:none"
       d="m 982.83961,757.33333 c -0.8476,-11.43383 -0.43665,-210.00003 0.43461,-210.00001 0.62351,0 0.50016,-2.20887 -0.27412,-4.90862 -0.86381,-3.01192 -0.77867,-5.11832 0.22033,-5.45132 1.05094,-0.35031 1.03,-2.11583 -0.0591,-4.98031 -1.13846,-2.99437 -1.13846,-4.62052 0,-5 1.13846,-0.37949 1.13846,-2.00564 0,-5 -1.13846,-2.99437 -1.13846,-4.62052 0,-5 1.13235,-0.37745 1.11847,-2.0582 -0.0422,-5.11107 -0.95117,-2.50177 -1.15209,-4.54867 -0.44649,-4.54867 0.70561,0 1.13427,-6.375 0.95258,-14.16666 C 983.44354,485.375 983.97267,479 984.80106,479 c 0.82839,0 1.50617,-1.125 1.50617,-2.5 0,-1.375 -0.83747,-2.5 -1.86105,-2.5 -1.0721,0 -1.47169,-1.48893 -0.94259,-3.5122 0.50515,-1.93171 0.25519,-5.25674 -0.55547,-7.38894 -0.93139,-2.44972 -0.85289,-4.08375 0.21324,-4.43913 1.13846,-0.37948 1.13846,-2.00563 0,-5 -1.13846,-2.99436 -1.13846,-4.62051 0,-5 1.12686,-0.37562 1.13956,-2.00272 0.0382,-4.89944 -1.1484,-3.02053 -1.07878,-4.9072 0.22935,-6.21533 1.19084,-1.19084 1.24823,-1.87829 0.15682,-1.87829 -1.93809,0 -1.94897,-4.82149 -0.0179,-7.94597 0.69821,-1.12972 0.6627,-2.054 -0.0789,-2.05396 -1.6217,10e-5 -1.58547,-75.25303 0.0375,-77.87905 0.6242,-1.00998 0.19274,-2.21828 -0.95881,-2.68512 -1.58563,-0.64282 -1.49042,-1.2672 0.39235,-2.57295 1.44272,-1.00056 3.10533,-1.10489 3.96163,-0.2486 0.85629,0.8563 3.11064,0.8539 5.37159,-0.006 2.31917,-0.88175 4.27881,-0.86195 4.84175,0.0489 0.52015,0.8416 2.07538,1.0967 3.45606,0.56687 1.3807,-0.52982 23.4817,-1.05956 49.1134,-1.17721 40.3456,-0.18517 46.6241,0.12179 46.7597,2.28611 0.9066,14.4675 0.3529,357.18498 -0.578,357.7603 -0.69,0.42643 -0.4251,2.3252 0.5887,4.21947 1.3789,2.5765 1.3367,3.75721 -0.1676,4.6869 -1.5699,0.9703 -1.5699,2.06646 0,5 1.57,2.93353 1.57,4.0297 0,5 -1.5699,0.9703 -1.5699,2.06646 0,5 1.4347,2.68063 1.4897,4.07933 0.1921,4.88131 -1.3033,0.80549 -1.2575,2.61117 0.1618,6.3712 1.6766,4.44192 1.5457,5.7277 -0.8533,8.37855 -3.478,3.84317 -3.5882,5.36894 -0.3876,5.36894 1.7988,0 2.0974,0.94311 1.1282,3.56296 -1.3046,3.52672 -1.8027,3.56265 -48.9521,3.53107 -26.1988,-0.0175 -48.4047,-0.50812 -49.34645,-1.09015 -0.94176,-0.58205 -2.16566,-0.32468 -2.71979,0.57192 -0.65481,1.05951 -2.54286,1.04641 -5.39355,-0.0373 -3.25197,-1.23646 -4.7384,-1.11226 -5.7488,0.48029 -1.06085,1.67205 -1.40382,1.59405 -1.54809,-0.35209 z m 112.77429,-15.41666 c -0.5342,-1.14584 -1.4341,-3.39584 -2,-5 -1.0097,-2.86269 -3.9953,-4.12222 -3.9506,-1.66667 0.077,4.23242 2.3886,8.75 4.4772,8.75 1.3624,0 2.0146,-0.9222 1.4734,-2.08333 z M 1089.8906,731.5 c 0,-0.87083 -0.8063,-1.85208 -1.7917,-2.18055 -0.9854,-0.32848 -1.7917,0.65277 -1.7917,2.18055 0,1.52778 0.8063,2.50903 1.7917,2.18055 0.9854,-0.32847 1.7917,-1.30972 1.7917,-2.18055 z m -1.7917,-6.29167 c -0.2062,-1.99283 -2.4922,-1.6069 -3.2083,0.54167 -0.3667,1.1 0.2333,1.7 1.3333,1.33333 1.1,-0.36666 1.9437,-1.21041 1.875,-1.875 z m -4.952,-11.702 c -2.1391,-2.13915 -4.3084,-0.48583 -2.7247,2.07664 0.6134,0.9926 1.8789,1.33285 2.8121,0.7561 1.1383,-0.70354 1.1096,-1.63577 -0.087,-2.83274 l 0,0 z m -1.7147,-4.96466 c -0.2061,-1.99284 -2.4921,-1.6069 -3.2083,0.54166 -0.3667,1.1 0.2333,1.7 1.3333,1.33334 1.1,-0.36667 1.9438,-1.21042 1.875,-1.875 z m -2.4282,-4.85997 c 0.6747,-1.09173 0.3861,-2.2652 -0.6414,-2.60768 -1.0275,-0.34249 -1.455,-1.69925 -0.9501,-3.01504 0.563,-1.46703 -0.1179,-2.39231 -1.7603,-2.39231 -2.938,0 -3.1178,0.69025 -1.6278,6.25 1.1061,4.12768 3.0857,4.82935 4.9796,1.76503 l 0,0 z m -5.1482,-14.24833 c -0.6304,-2.51165 -1.9008,-5.03302 -2.8231,-5.60302 -0.9222,-0.57 -1.5565,-1.68377 -1.4095,-2.47502 0.1471,-0.79126 -0.5389,-1.70741 -1.5243,-2.03588 -2.7202,-0.90675 -2.1408,5.64935 0.7083,8.01388 1.375,1.14115 2.5,3.10799 2.5,4.37074 0,1.26276 0.8313,2.29593 1.8474,2.29593 1.1814,0 1.4342,-1.6462 0.7012,-4.56663 l 0,0 z m -7.9137,-17.10004 c 0.1474,-5.18246 -2.3767,-6.81415 -3.9994,-2.58545 -0.6896,1.79724 1.7508,6.76635 3.6942,7.52205 0.09,0.0348 0.227,-2.1866 0.3052,-4.9366 z m -2.7182,-7.5 c 0,-0.87083 -0.8063,-1.85208 -1.7917,-2.18055 -0.9854,-0.32848 -1.7916,0.65277 -1.7916,2.18055 0,1.52779 0.8062,2.50904 1.7916,2.18055 0.9854,-0.32846 1.7917,-1.30971 1.7917,-2.18055 l 0,0 z m -1.9167,-6.66666 c 0,-1.375 -0.7942,-2.5 -1.765,-2.5 -0.9708,0 -1.3335,-0.69819 -0.8061,-1.5515 0.5273,-0.85334 0.1913,-2.02587 -0.7468,-2.60564 -2.6201,-1.6193 -3.9898,3.8765 -1.6645,6.67835 2.6424,3.18382 4.9824,3.17385 4.9824,-0.0212 z m -4.75,-10 c 0,-0.87084 -0.8062,-1.85209 -1.7916,-2.18055 -0.9855,-0.32849 -1.7917,0.65276 -1.7917,2.18055 0,1.52778 0.8062,2.50903 1.7917,2.18055 0.9854,-0.32847 1.7916,-1.30972 1.7916,-2.18055 l 0,0 z m -3.0422,-5.26332 c 0.6031,-0.60317 0.4169,-1.91567 -0.4138,-2.91667 -0.8308,-1.00101 -1.5475,-2.4093 -1.5927,-3.12953 -0.045,-0.72025 -1.3795,-2.59525 -2.9652,-4.16667 -2.7238,-2.69953 -2.8187,-2.6877 -1.719,0.21435 0.6401,1.68934 1.6169,4.87684 2.1707,7.08334 1.0094,4.02158 2.4709,4.96423 4.52,2.91518 z m -5.5411,-18.16838 c 0,-2.75012 -2.6341,-3.21475 -4.1667,-0.73497 -1.3591,2.1992 0.6337,5.32012 2.6152,4.09548 0.8533,-0.52738 1.5515,-2.03961 1.5515,-3.36051 z m -3.2083,-4.52664 c -0.2062,-1.99283 -2.4922,-1.6069 -3.2084,0.54167 -0.3666,1.1 0.2334,1.7 1.3334,1.33333 1.1,-0.36666 1.9437,-1.21041 1.875,-1.875 z m -3.2084,-5.375 c 0,-0.87083 -0.8062,-1.85208 -1.7916,-2.18055 -0.9855,-0.32848 -1.7917,0.65277 -1.7917,2.18055 0,1.52779 0.8062,2.50904 1.7917,2.18055 0.9854,-0.32846 1.7916,-1.30971 1.7916,-2.18055 l 0,0 z m -0.25,-5.95238 c 0,-2.74713 -4.7706,-6.88612 -6.6197,-5.74328 -1.0462,0.64656 -0.9048,2.20261 0.3881,4.27293 2.1715,3.4771 6.2316,4.43508 6.2316,1.47035 z m -6.4166,-10.71428 c 0,-0.87084 -0.8063,-1.85209 -1.7917,-2.18055 -0.9854,-0.32849 -1.7917,0.65276 -1.7917,2.18055 0,1.52778 0.8063,2.50903 1.7917,2.18055 0.9854,-0.32847 1.7917,-1.30972 1.7917,-2.18055 l 0,0 z m -1.2671,-5.53604 c 0.4655,-0.75315 -0.7306,-2.71955 -2.6579,-4.36976 -3.1712,-2.71525 -3.4007,-2.73055 -2.4146,-0.161 0.5993,1.56166 1.0896,3.52806 1.0896,4.36976 0,1.90085 2.8367,2.01552 3.9829,0.161 z M 1028.2239,581.5 c 0,-0.87083 -0.8063,-1.85208 -1.7917,-2.18055 -0.9854,-0.32848 -1.7916,0.65277 -1.7916,2.18055 0,1.52778 0.8062,2.50903 1.7916,2.18055 0.9854,-0.32847 1.7917,-1.30972 1.7917,-2.18055 z m -1.7917,-6.29167 c -0.2061,-1.99283 -2.4921,-1.6069 -3.2083,0.54167 -0.3667,1.1 0.2333,1.7 1.3333,1.33333 1.1,-0.36666 1.9438,-1.21041 1.875,-1.875 z m -4.875,-10.375 c 0,-0.87083 -0.8062,-1.85208 -1.7916,-2.18055 -0.9855,-0.32848 -1.7917,0.65277 -1.7917,2.18055 0,1.52779 0.8062,2.50904 1.7917,2.18055 0.9854,-0.32846 1.7916,-1.30971 1.7916,-2.18055 z m -2.0566,-6.70833 c -1.4688,-6.12005 -2.0943,-7.45833 -3.4861,-7.45833 -0.8639,0 -1.1392,-0.69819 -0.6118,-1.5515 0.5274,-0.85334 0.2485,-1.99057 -0.6198,-2.52719 -0.8683,-0.53663 -2.0539,-0.20675 -2.6348,0.73309 -1.5994,2.58793 0.7365,8.3456 3.3858,8.3456 1.4777,0 1.951,1.00165 1.2888,2.72741 -0.6701,1.74622 -0.3065,2.48072 1.0106,2.04167 1.1315,-0.37717 1.8818,-1.417 1.6673,-2.31075 l 0,0 z m -6.5267,-16.625 c 0,-1.375 -0.75,-2.5 -1.6667,-2.5 -0.9166,0 -1.6666,1.125 -1.6666,2.5 0,1.375 0.75,2.5 1.6666,2.5 0.9167,0 1.6667,-1.125 1.6667,-2.5 z m -2.5712,-4.0515 c 0.5274,-0.85333 0.1844,-2.03015 -0.7621,-2.61517 -0.9466,-0.58501 -1.3216,-1.71001 -0.8334,-2.5 0.9706,-1.57046 -2.2237,-4.16516 -3.5253,-2.86355 -0.442,0.44195 -0.3108,2.76705 0.2916,5.16689 1.1157,4.44563 3.104,5.6033 4.8292,2.81183 z m -6.1441,-18.136 c 0.3629,-1.08855 -0.7153,-1.99065 -2.3958,-2.00468 -2.37257,-0.0198 -2.54519,-0.34884 -0.7723,-1.47195 1.8655,-1.18175 1.7619,-1.7382 -0.566,-3.04097 -1.56709,-0.877 -2.72582,-2.25838 -2.57494,-3.06972 0.15089,-0.81135 -0.40691,-1.70226 -1.23955,-1.97981 -0.83264,-0.27755 -1.51389,0.6412 -1.51389,2.04166 0,1.40047 0.56541,2.5463 1.25646,2.5463 0.69106,0 1.75937,2.28974 2.37404,5.08829 1.07954,4.91513 4.07618,5.95826 5.43198,1.89088 z m -8.09136,-16.1875 c -1.47437,-6.14328 -2.10313,-7.45833 -3.56604,-7.45833 -0.90783,0 -1.29391,-0.9375 -0.85795,-2.08334 1.09757,-2.88478 -1.743,-10.00235 -3.54692,-8.88747 -2.28794,1.41403 -1.73281,9.46873 0.71739,10.40896 1.2044,0.46217 2.67897,3.06738 3.27681,5.78936 0.59785,2.72198 1.82493,4.70308 2.72685,4.40244 0.90192,-0.30064 1.46435,-1.27787 1.24986,-2.17162 z"
       id="path7426"
       inkscape:connector-curvature="0" />
  </g>
  <g
     id="layer1"
     inkscape:label="hako"
     inkscape:groupmode="layer"
     sodipodi:insensitive="true">
    <g
       transform="translate(800.9739,600)"
       inkscape:label="Cube :x30.00:y30.00:x0.00:x0.00:y0.00:x0.00"
       id="g7173" />
    <g
       id="g7311"
       inkscape:label="Cube :x50.00:y30.00:x0.00:x0.00:y0.00:x0.00"
       transform="translate(800.9739,600)" />
    <path
       style="fill:none;stroke:#000000;stroke-width:1px;stroke-linecap:butt;stroke-linejoin:miter;stroke-opacity:1"
       d="M 1100,760 980,760 840,420"
       id="path7393"
       inkscape:connector-curvature="0" />
    <path
       style="fill:none;stroke:#000000;stroke-width:1;stroke-linecap:butt;stroke-linejoin:miter;stroke-miterlimit:4;stroke-opacity:1;stroke-dasharray:2, 4;stroke-dashoffset:0"
       d="m 840,420 120,0 140,340"
       id="path7397"
       inkscape:connector-curvature="0" />
    <path
       style="fill:none;stroke:#000000;stroke-width:1px;stroke-linecap:butt;stroke-linejoin:miter;stroke-opacity:1"
       d="m 1100,760 0,-420 -120,0 0,420"
       id="path7399"
       inkscape:connector-curvature="0" />
    <path
       style="fill:none;stroke:#000000;stroke-width:1px;stroke-linecap:butt;stroke-linejoin:miter;stroke-opacity:1"
       d="M 840,420 840,0 980,340"
       id="path7403"
       inkscape:connector-curvature="0" />
    <path
       style="fill:none;stroke:#000000;stroke-width:1px;stroke-linecap:butt;stroke-linejoin:miter;stroke-opacity:1"
       d="M 1100,340 960,0 840,0"
       id="path7405"
       inkscape:connector-curvature="0"
       sodipodi:nodetypes="ccc" />
    <path
       style="fill:none;stroke:#000000;stroke-width:1;stroke-linecap:butt;stroke-linejoin:miter;stroke-miterlimit:4;stroke-opacity:1;stroke-dasharray:2, 4;stroke-dashoffset:0"
       d="M 960,420 960,0"
       id="path7407"
       inkscape:connector-curvature="0" />
  </g>
  <g
     inkscape:groupmode="layer"
     id="layer6"
     inkscape:label="oto"
     sodipodi:insensitive="true"
     style="display:inline">
    <g
       id="g7439"
       transform="matrix(0.14293839,0,0,0.14293839,137.15383,406.80477)">
      <g
         id="g7433">
        <path
           sodipodi:type="arc"
           style="fill:#000000;fill-opacity:1;fill-rule:nonzero;stroke:#000000"
           id="path7429"
           sodipodi:cx="90"
           sodipodi:cy="310"
           sodipodi:rx="70"
           sodipodi:ry="50"
           d="m 160,310 a 70,50 0 1 1 -140,0 70,50 0 1 1 140,0 z"
           transform="matrix(0.92632217,-0.37673233,0.37673233,0.92632217,-110.15602,56.746038)" />
        <path
           style="fill:none;stroke:#000000;stroke-width:7;stroke-linecap:butt;stroke-linejoin:miter;stroke-miterlimit:4;stroke-opacity:1;stroke-dasharray:none"
           d="M 156,302 156,62"
           id="path7431"
           inkscape:connector-curvature="0" />
      </g>
      <path
         sodipodi:nodetypes="ccccc"
         inkscape:connector-curvature="0"
         id="path7437"
         d="m 160,60 c 40,0 73.69792,12.604167 100,40 12.99659,19.2584 25.35155,24.40082 40,80 -18.56038,-19.09183 -60,-60 -80,-60 -40,-20 -33.33333,-10.52469 -60,-20"
         style="fill:#000000;stroke:#000000;stroke-width:1px;stroke-linecap:butt;stroke-linejoin:miter;stroke-opacity:1" />
    </g>
  </g>
  <g
     inkscape:groupmode="layer"
     id="layer8"
     inkscape:label="jiku"
     sodipodi:insensitive="true">
    <path
       style="fill:none;stroke:#000000;stroke-width:3;stroke-linecap:butt;stroke-linejoin:miter;stroke-miterlimit:4;stroke-opacity:1;stroke-dasharray:none;marker-end:url(#TriangleOutL)"
       d="m 980,760 100,0"
       id="path7449"
       inkscape:connector-curvature="0" />
    <path
       style="fill:none;stroke:#000000;stroke-width:3;stroke-linecap:butt;stroke-linejoin:miter;stroke-miterlimit:4;stroke-opacity:1;stroke-dasharray:none;marker-end:url(#TriangleOutL)"
       d="M 980,760 940,660"
       id="path7635"
       inkscape:connector-curvature="0" />
    <path
       style="fill:none;stroke:#000000;stroke-width:3;stroke-linecap:butt;stroke-linejoin:miter;stroke-miterlimit:4;stroke-opacity:1;stroke-dasharray:none;marker-end:url(#TriangleOutL)"
       d="m 980,760 0,-100"
       id="path7819"
       inkscape:connector-curvature="0" />
  </g>
  <g
     inkscape:groupmode="layer"
     id="layer9"
     inkscape:label="jikumoji"
     sodipodi:insensitive="true">
    <flowRoot
       xml:space="preserve"
       id="flowRoot8004"
       style="font-size:40px;font-style:normal;font-variant:normal;font-weight:normal;font-stretch:normal;text-align:start;line-height:125%;letter-spacing:0px;word-spacing:0px;writing-mode:lr-tb;text-anchor:start;fill:#000000;fill-opacity:1;stroke:none;font-family:'Takao P明朝';-inkscape-font-specification:'Takao P明朝'"
       transform="translate(949,506.34961)"><flowRegion
         id="flowRegion8006"><rect
           id="rect8008"
           width="188.33333"
           height="130"
           x="-45"
           y="101.66666" /></flowRegion><flowPara
         id="flowPara8010">x</flowPara></flowRoot>    <flowRoot
       xml:space="preserve"
       id="flowRoot8012"
       style="font-size:40px;font-style:normal;font-variant:normal;font-weight:normal;font-stretch:normal;text-align:start;line-height:125%;letter-spacing:0px;word-spacing:0px;writing-mode:lr-tb;text-anchor:start;fill:#000000;fill-opacity:1;stroke:none;font-family:'Takao P明朝';-inkscape-font-specification:'Takao P明朝'"
       transform="translate(1074.6563,539.66211)"><flowRegion
         id="flowRegion8014"><rect
           id="rect8016"
           width="328.33334"
           height="188.33333"
           x="-86.666664"
           y="58.333332" /></flowRegion><flowPara
         id="flowPara8018">y</flowPara></flowRoot>    <flowRoot
       xml:space="preserve"
       id="flowRoot8020"
       style="font-size:40px;font-style:normal;font-variant:normal;font-weight:normal;font-stretch:normal;text-align:start;line-height:125%;letter-spacing:0px;word-spacing:0px;writing-mode:lr-tb;text-anchor:start;fill:#000000;fill-opacity:1;stroke:none;font-family:'Takao P明朝';-inkscape-font-specification:'Takao P明朝'"
       transform="translate(1178,810.34961)"><flowRegion
         id="flowRegion8022"><rect
           id="rect8024"
           width="273.33334"
           height="135"
           x="-90"
           y="-68.333336" /></flowRegion><flowPara
         id="flowPara8026">z</flowPara></flowRoot>  </g>
  <g
     inkscape:groupmode="layer"
     id="layer10"
     inkscape:label="kasou"
     sodipodi:insensitive="true">
    <path
       style="fill:none;stroke:#000000;stroke-width:0.5;stroke-linecap:butt;stroke-linejoin:miter;stroke-miterlimit:4;stroke-opacity:1;stroke-dasharray:6, 6;stroke-dashoffset:0"
       d="m 160,440 760,0"
       id="path8029"
       inkscape:connector-curvature="0" />
  </g>
  <g
     inkscape:groupmode="layer"
     id="layer15"
     inkscape:label="ido1moji"
     sodipodi:insensitive="true">
    <flowRoot
       xml:space="preserve"
       id="flowRoot10451"
       style="font-size:40px;font-style:normal;font-variant:normal;font-weight:normal;font-stretch:normal;text-align:start;line-height:125%;letter-spacing:0px;word-spacing:0px;writing-mode:lr-tb;text-anchor:start;fill:#000000;fill-opacity:1;stroke:none;font-family:'Takao P明朝';-inkscape-font-specification:'Takao P明朝'"
       transform="translate(632.65625,331.66211)"><flowRegion
         id="flowRegion10453"><rect
           id="rect10455"
           width="193.33333"
           height="148.33333"
           x="-126.66666"
           y="38.333332" /></flowRegion><flowPara
         id="flowPara10457">A</flowPara></flowRoot>    <flowRoot
       xml:space="preserve"
       id="flowRoot10459"
       style="font-size:40px;font-style:normal;font-variant:normal;font-weight:normal;font-stretch:normal;text-align:start;line-height:125%;letter-spacing:0px;word-spacing:0px;writing-mode:lr-tb;text-anchor:start;fill:#000000;fill-opacity:1;stroke:none;font-family:'Takao P明朝';-inkscape-font-specification:'Takao P明朝'"
       transform="translate(688,314)"><flowRegion
         id="flowRegion10461"><rect
           id="rect10463"
           width="295"
           height="178.33333"
           x="58.333332"
           y="65" /></flowRegion><flowPara
         id="flowPara10465">B</flowPara></flowRoot>    <flowRoot
       xml:space="preserve"
       id="flowRoot10467"
       style="font-size:40px;font-style:normal;font-variant:normal;font-weight:normal;font-stretch:normal;text-align:start;line-height:125%;letter-spacing:0px;word-spacing:0px;writing-mode:lr-tb;text-anchor:start;fill:#000000;fill-opacity:1;stroke:none;font-family:'Takao P明朝';-inkscape-font-specification:'Takao P明朝'"
       transform="translate(888,796)"><flowRegion
         id="flowRegion10469"><rect
           id="rect10471"
           width="221.66667"
           height="191.66667"
           x="-10"
           y="53.333332" /></flowRegion><flowPara
         id="flowPara10473">C</flowPara></flowRoot>    <flowRoot
       xml:space="preserve"
       id="flowRoot10475"
       style="font-size:40px;font-style:normal;font-variant:normal;font-weight:normal;font-stretch:normal;text-align:start;line-height:125%;letter-spacing:0px;word-spacing:0px;writing-mode:lr-tb;text-anchor:start;fill:#000000;fill-opacity:1;stroke:none;font-family:'Takao P明朝';-inkscape-font-specification:'Takao P明朝'"><flowRegion
         id="flowRegion10477"><rect
           id="rect10479"
           width="331.66666"
           height="313.33334"
           x="155"
           y="700" /></flowRegion><flowPara
         id="flowPara10481" /></flowRoot>    <flowRoot
       style="font-size:40px;font-style:normal;font-variant:normal;font-weight:normal;font-stretch:normal;text-align:start;line-height:125%;letter-spacing:0px;word-spacing:0px;writing-mode:lr-tb;text-anchor:start;fill:#000000;fill-opacity:1;stroke:none;font-family:'Takao P明朝';-inkscape-font-specification:'Takao P明朝'"
       id="flowRoot10483"
       xml:space="preserve"
       transform="translate(1082,150)"><flowRegion
         id="flowRegion10485"><rect
           y="700"
           x="155"
           height="313.33334"
           width="331.66666"
           id="rect10487" /></flowRegion><flowPara
         id="flowPara10489">D</flowPara></flowRoot>    <flowRoot
       xml:space="preserve"
       id="flowRoot10491"
       style="font-size:40px;font-style:normal;font-variant:normal;font-weight:normal;font-stretch:normal;text-align:start;line-height:125%;letter-spacing:0px;word-spacing:0px;writing-mode:lr-tb;text-anchor:start;fill:#000000;fill-opacity:1;stroke:none;font-family:'Takao P明朝';-inkscape-font-specification:'Takao P明朝'"
       transform="translate(1202,240)"><flowRegion
         id="flowRegion10493"><rect
           id="rect10495"
           width="305"
           height="225"
           x="-155"
           y="140" /></flowRegion><flowPara
         id="flowPara10497">E</flowPara></flowRoot>  </g>
  <g
     inkscape:groupmode="layer"
     id="layer14"
     inkscape:label="ido1">
    <path
       style="fill:#d42aff;stroke:#d42aff;stroke-width:3;stroke-linecap:butt;stroke-linejoin:miter;stroke-miterlimit:4;stroke-opacity:1;stroke-dasharray:none;marker-end:url(#Arrow2Lend)"
       d="m 520,440 240,0"
       id="path9676"
       inkscape:connector-curvature="0" />
    <path
       style="fill:#00ff00;stroke:#00ff00;stroke-width:3;stroke-linecap:butt;stroke-linejoin:miter;stroke-miterlimit:4;stroke-opacity:1;stroke-dasharray:none;marker-end:url(#Arrow2Lend)"
       d="M 760,440 920,880"
       id="path9864"
       inkscape:connector-curvature="0" />
    <path
       style="fill:#00ffff;stroke:#00ffff;stroke-width:3;stroke-linecap:butt;stroke-linejoin:miter;stroke-miterlimit:4;stroke-opacity:1;stroke-dasharray:none;marker-end:url(#Arrow2Lend)"
       d="m 920,880 300,0"
       id="path10050"
       inkscape:connector-curvature="0" />
    <path
       style="fill:#ffcc00;stroke:#ffcc00;stroke-width:3;stroke-linecap:butt;stroke-linejoin:miter;stroke-miterlimit:4;stroke-opacity:1;stroke-dasharray:none"
       d="M 1220,880 1100,560"
       id="path10236"
       inkscape:connector-curvature="0" />
    <path
       style="fill:none;stroke:#ffcc00;stroke-width:3;stroke-linecap:butt;stroke-linejoin:miter;stroke-miterlimit:4;stroke-opacity:1;stroke-dasharray:3,6;stroke-dashoffset:0;marker-end:url(#Arrow2Lend)"
       d="M 1100,560 1060,440"
       id="path10238"
       inkscape:connector-curvature="0" />
    <g
       id="g10428"
       transform="matrix(0.59016393,0,0,0.59016393,720.18853,398.18853)">
      <path
         inkscape:connector-curvature="0"
         id="path10424"
         d="m 40,40 60,60"
         style="fill:none;stroke:#000000;stroke-width:1px;stroke-linecap:butt;stroke-linejoin:miter;stroke-opacity:1" />
      <path
         inkscape:connector-curvature="0"
         id="path10426"
         d="M 40,100 100,40"
         style="fill:none;stroke:#000000;stroke-width:1px;stroke-linecap:butt;stroke-linejoin:miter;stroke-opacity:1" />
    </g>
    <g
       transform="matrix(0.59016393,0,0,0.59016393,880.18853,838.18853)"
       id="g10432">
      <path
         style="fill:none;stroke:#000000;stroke-width:1px;stroke-linecap:butt;stroke-linejoin:miter;stroke-opacity:1"
         d="m 40,40 60,60"
         id="path10434"
         inkscape:connector-curvature="0" />
      <path
         style="fill:none;stroke:#000000;stroke-width:1px;stroke-linecap:butt;stroke-linejoin:miter;stroke-opacity:1"
         d="M 40,100 100,40"
         id="path10436"
         inkscape:connector-curvature="0" />
    </g>
    <g
       id="g10438"
       transform="matrix(0.59016393,0,0,0.59016393,1180.1885,838.18853)">
      <path
         inkscape:connector-curvature="0"
         id="path10440"
         d="m 40,40 60,60"
         style="fill:none;stroke:#000000;stroke-width:1px;stroke-linecap:butt;stroke-linejoin:miter;stroke-opacity:1" />
      <path
         inkscape:connector-curvature="0"
         id="path10442"
         d="M 40,100 100,40"
         style="fill:none;stroke:#000000;stroke-width:1px;stroke-linecap:butt;stroke-linejoin:miter;stroke-opacity:1" />
    </g>
    <g
       transform="matrix(0.59016393,0,0,0.59016393,1020.1885,398.18853)"
       id="g10444">
      <path
         style="fill:none;stroke:#000000;stroke-width:1px;stroke-linecap:butt;stroke-linejoin:miter;stroke-opacity:1"
         d="m 40,40 60,60"
         id="path10446"
         inkscape:connector-curvature="0" />
      <path
         style="fill:none;stroke:#000000;stroke-width:1px;stroke-linecap:butt;stroke-linejoin:miter;stroke-opacity:1"
         d="M 40,100 100,40"
         id="path10448"
         inkscape:connector-curvature="0" />
    </g>
  </g>
  <g
     inkscape:groupmode="layer"
     id="layer7"
     inkscape:label="ten"
     sodipodi:insensitive="true"
     style="display:inline">
    <path
       sodipodi:type="arc"
       style="fill:#000000;fill-opacity:1;fill-rule:nonzero;stroke:#000000;stroke-width:7;stroke-miterlimit:4;stroke-opacity:1;stroke-dasharray:none;stroke-dashoffset:0"
       id="path7446"
       sodipodi:cx="90"
       sodipodi:cy="110"
       sodipodi:rx="50"
       sodipodi:ry="50"
       d="m 140,110 a 50,50 0 1 1 -100,0 50,50 0 1 1 100,0 z"
       transform="matrix(0.42367601,0,0,0.42367601,480.70249,392.56231)" />
  </g>
</svg>
